<svg width="174" height="133" viewBox="0 0 174 133" fill="none" xmlns="http://www.w3.org/2000/svg">
<path fill-rule="evenodd" clip-rule="evenodd" d="M63.712 17.25C62.719 46.229 57.932 66.858 49.234 79.646C40.097 93.08 19.99 108.862 7.25 112.601L2 114.142V123.571V133L5.25 132.985C16.781 132.933 33.273 125.247 44.707 114.595C53.769 106.154 59.821 97.834 64.892 86.844C71.855 71.752 73.912 58.828 74.696 25.25L75.286 0H69.794H64.303L63.712 17.25ZM78 66.5V133H87H96V66.5V0H87H78V66.5ZM99.309 25.25C99.93 51.581 100.791 60.198 104.124 73.396C110.034 96.806 127.841 118.296 149.363 127.993C155.81 130.897 164.076 133 169.049 133H172V123.539V114.077L167.75 112.96C162.764 111.649 152.187 106.053 146.5 101.717C139.395 96.3 128.929 85.653 124.804 79.646C116.089 66.954 111.284 46.299 110.288 17.25L109.697 0H104.206H98.714L99.309 25.25Z" fill="url(#paint0_linear_9_12)"/>
<mask id="path-2-outside-1_9_12" maskUnits="userSpaceOnUse" x="0" y="17" width="174" height="59" fill="black">
<rect fill="white" y="17" width="174" height="59"/>
<path d="M5.28902 72.9286C4.14501 72.9286 3.31084 72.6667 2.7865 72.1429C2.26217 71.6191 2 70.7857 2 69.6429V61.2857C2 60.1429 2.26217 59.3095 2.7865 58.7857C3.31084 58.2619 4.14501 58 5.28902 58H23.7361C24.0698 58 24.3558 57.9286 24.5941 57.7857C24.8325 57.6429 24.9516 57.4048 24.9516 57.0714V54.2857C24.9516 53.9524 24.8325 53.7143 24.5941 53.5714C24.3558 53.4286 24.0698 53.3571 23.7361 53.3571H6.00402C4.86002 53.3571 4.02585 53.0952 3.50151 52.5714C2.97717 52.0476 2.715 51.2143 2.715 50.0714V23.3571C2.715 22.2143 2.97717 21.381 3.50151 20.8571C4.02585 20.3333 4.86002 20.0714 6.00402 20.0714H36.8207C37.9647 20.0714 38.7989 20.3333 39.3232 20.8571C39.8476 21.381 40.1097 22.2143 40.1097 23.3571V31.8571C40.1097 33 39.8476 33.8333 39.3232 34.3571C38.7989 34.881 37.9647 35.1429 36.8207 35.1429H20.3756V38.3571H29.4562C33.5555 38.3571 36.773 39.381 39.1087 41.4286C41.4921 43.4286 42.6837 46.4286 42.6837 50.4286V60.3571C42.6837 64.1667 41.3729 67.2143 38.7512 69.5C36.1295 71.7857 32.5545 72.9286 28.0261 72.9286H5.28902ZM28.0261 72.2143C32.3162 72.2143 35.7005 71.1429 38.1792 69C40.7056 66.8572 41.9687 63.9762 41.9687 60.3571V50.4286C41.9687 46.6667 40.8486 43.8333 38.6082 41.9286C36.3679 40.0238 33.3172 39.0714 29.4562 39.0714H19.6606V34.4286H36.8207C37.7264 34.4286 38.3699 34.2381 38.7512 33.8571C39.1802 33.4286 39.3947 32.7619 39.3947 31.8571V23.3571C39.3947 22.4524 39.1802 21.8095 38.7512 21.4286C38.3699 21 37.7264 20.7857 36.8207 20.7857H6.00402C5.09835 20.7857 4.43101 21 4.00201 21.4286C3.62068 21.8095 3.43001 22.4524 3.43001 23.3571V50.0714C3.43001 50.9762 3.62068 51.6429 4.00201 52.0714C4.43101 52.4524 5.09835 52.6429 6.00402 52.6429H23.7361C24.3081 52.6429 24.761 52.7857 25.0946 53.0714C25.476 53.3095 25.6666 53.7143 25.6666 54.2857V57.0714C25.6666 57.6429 25.476 58.0714 25.0946 58.3571C24.761 58.5952 24.3081 58.7143 23.7361 58.7143H5.28902C4.38335 58.7143 3.71601 58.9286 3.28701 59.3571C2.90567 59.7381 2.715 60.381 2.715 61.2857V69.6429C2.715 70.5476 2.90567 71.2143 3.28701 71.6429C3.71601 72.0238 4.38335 72.2143 5.28902 72.2143H28.0261ZM9.15004 65.7857V65.0714H26.0241C28.6935 65.0714 30.6002 64.5714 31.7442 63.5714C32.8882 62.5714 33.4602 60.9762 33.4602 58.7857V52.5C33.4602 50.2619 32.8643 48.6667 31.6727 47.7143C30.5287 46.7143 28.8603 46.2143 26.6676 46.2143H11.2236V27.2143H32.9597V27.9286H11.9386V45.5H26.6676C29.1463 45.5 31.0053 46.0714 32.2447 47.2143C33.5317 48.3095 34.1752 50.0714 34.1752 52.5V58.7857C34.1752 61.2143 33.5555 63 32.3162 64.1429C31.0768 65.2381 28.9795 65.7857 26.0241 65.7857H9.15004Z"/>
<path d="M172 34.3571V58.7143C172 60.9524 171.69 63.0238 171.071 64.9286C170.451 66.7857 169.307 68.381 167.638 69.7143C166.018 71.0476 163.73 72.0952 160.774 72.8571C157.819 73.619 154.053 74 149.477 74C144.901 74 141.136 73.619 138.18 72.8571C135.225 72.0952 132.913 71.0476 131.245 69.7143C129.576 68.381 128.432 66.7857 127.813 64.9286C127.193 63.0238 126.883 60.9524 126.883 58.7143V34.3571C126.883 32.119 127.193 30.0714 127.813 28.2143C128.432 26.3095 129.576 24.6905 131.245 23.3571C132.913 21.9762 135.225 20.9048 138.18 20.1429C141.136 19.381 144.901 19 149.477 19C154.053 19 157.819 19.381 160.774 20.1429C163.73 20.9048 166.018 21.9762 167.638 23.3571C169.307 24.6905 170.451 26.3095 171.071 28.2143C171.69 30.0714 172 32.119 172 34.3571ZM171.285 58.7143V34.3571C171.285 32.1667 170.975 30.1905 170.356 28.4286C169.736 26.6191 168.616 25.0714 166.995 23.7857C165.374 22.5 163.134 21.5 160.274 20.7857C157.462 20.0714 153.863 19.7143 149.477 19.7143C145.092 19.7143 141.469 20.0714 138.609 20.7857C135.797 21.5 133.58 22.5 131.96 23.7857C130.339 25.0714 129.195 26.6191 128.528 28.4286C127.908 30.1905 127.598 32.1667 127.598 34.3571V58.7143C127.598 60.9048 127.908 62.9048 128.528 64.7143C129.195 66.4762 130.339 68 131.96 69.2857C133.58 70.5238 135.797 71.5 138.609 72.2143C141.469 72.9286 145.092 73.2857 149.477 73.2857C153.863 73.2857 157.462 72.9286 160.274 72.2143C163.134 71.5 165.374 70.5238 166.995 69.2857C168.616 68 169.736 66.4762 170.356 64.7143C170.975 62.9048 171.285 60.9048 171.285 58.7143ZM135.32 57.0714V36C135.32 34.5714 135.535 33.2619 135.964 32.0714C136.393 30.881 137.132 29.881 138.18 29.0714C139.229 28.2143 140.659 27.5476 142.47 27.0714C144.329 26.5952 146.641 26.3571 149.406 26.3571C154.935 26.3571 158.677 27.2619 160.631 29.0714C162.633 30.881 163.634 33.1905 163.634 36V57.0714C163.634 59.9286 162.633 62.2619 160.631 64.0714C158.677 65.8333 154.935 66.7143 149.406 66.7143C146.641 66.7143 144.329 66.4762 142.47 66C140.659 65.5238 139.229 64.881 138.18 64.0714C137.132 63.2143 136.393 62.1905 135.964 61C135.535 59.8095 135.32 58.5 135.32 57.0714ZM149.406 27.0714C144.306 27.0714 140.802 27.881 138.895 29.5C136.989 31.119 136.035 33.2857 136.035 36V57.0714C136.035 59.7857 136.989 61.9524 138.895 63.5714C140.802 65.1905 144.306 66 149.406 66C154.506 66 158.034 65.1905 159.988 63.5714C161.942 61.9524 162.919 59.7857 162.919 57.0714V36C162.919 33.3333 161.942 31.1905 159.988 29.5714C158.034 27.9048 154.506 27.0714 149.406 27.0714ZM143.757 56.1429V36.9286C143.757 36.0238 144.091 35.2619 144.758 34.6429C145.473 33.9762 147.046 33.6429 149.477 33.6429C151.908 33.6429 153.458 33.9762 154.125 34.6429C154.84 35.2619 155.197 36.0238 155.197 36.9286V56.1429C155.197 57.0952 154.84 57.9048 154.125 58.5714C153.458 59.1905 151.908 59.5 149.477 59.5C147.046 59.5 145.473 59.1905 144.758 58.5714C144.091 57.9048 143.757 57.0952 143.757 56.1429ZM144.472 36.9286V56.1429C144.472 57 144.83 57.6667 145.545 58.1429C146.26 58.5714 147.571 58.7857 149.477 58.7857C151.384 58.7857 152.695 58.5714 153.41 58.1429C154.125 57.6667 154.482 57 154.482 56.1429V36.9286C154.482 36.119 154.125 35.5 153.41 35.0714C152.695 34.5952 151.384 34.3571 149.477 34.3571C147.571 34.3571 146.26 34.5952 145.545 35.0714C144.83 35.5 144.472 36.119 144.472 36.9286Z"/>
</mask>
<path d="M5.28902 72.9286C4.14501 72.9286 3.31084 72.6667 2.7865 72.1429C2.26217 71.6191 2 70.7857 2 69.6429V61.2857C2 60.1429 2.26217 59.3095 2.7865 58.7857C3.31084 58.2619 4.14501 58 5.28902 58H23.7361C24.0698 58 24.3558 57.9286 24.5941 57.7857C24.8325 57.6429 24.9516 57.4048 24.9516 57.0714V54.2857C24.9516 53.9524 24.8325 53.7143 24.5941 53.5714C24.3558 53.4286 24.0698 53.3571 23.7361 53.3571H6.00402C4.86002 53.3571 4.02585 53.0952 3.50151 52.5714C2.97717 52.0476 2.715 51.2143 2.715 50.0714V23.3571C2.715 22.2143 2.97717 21.381 3.50151 20.8571C4.02585 20.3333 4.86002 20.0714 6.00402 20.0714H36.8207C37.9647 20.0714 38.7989 20.3333 39.3232 20.8571C39.8476 21.381 40.1097 22.2143 40.1097 23.3571V31.8571C40.1097 33 39.8476 33.8333 39.3232 34.3571C38.7989 34.881 37.9647 35.1429 36.8207 35.1429H20.3756V38.3571H29.4562C33.5555 38.3571 36.773 39.381 39.1087 41.4286C41.4921 43.4286 42.6837 46.4286 42.6837 50.4286V60.3571C42.6837 64.1667 41.3729 67.2143 38.7512 69.5C36.1295 71.7857 32.5545 72.9286 28.0261 72.9286H5.28902ZM28.0261 72.2143C32.3162 72.2143 35.7005 71.1429 38.1792 69C40.7056 66.8572 41.9687 63.9762 41.9687 60.3571V50.4286C41.9687 46.6667 40.8486 43.8333 38.6082 41.9286C36.3679 40.0238 33.3172 39.0714 29.4562 39.0714H19.6606V34.4286H36.8207C37.7264 34.4286 38.3699 34.2381 38.7512 33.8571C39.1802 33.4286 39.3947 32.7619 39.3947 31.8571V23.3571C39.3947 22.4524 39.1802 21.8095 38.7512 21.4286C38.3699 21 37.7264 20.7857 36.8207 20.7857H6.00402C5.09835 20.7857 4.43101 21 4.00201 21.4286C3.62068 21.8095 3.43001 22.4524 3.43001 23.3571V50.0714C3.43001 50.9762 3.62068 51.6429 4.00201 52.0714C4.43101 52.4524 5.09835 52.6429 6.00402 52.6429H23.7361C24.3081 52.6429 24.761 52.7857 25.0946 53.0714C25.476 53.3095 25.6666 53.7143 25.6666 54.2857V57.0714C25.6666 57.6429 25.476 58.0714 25.0946 58.3571C24.761 58.5952 24.3081 58.7143 23.7361 58.7143H5.28902C4.38335 58.7143 3.71601 58.9286 3.28701 59.3571C2.90567 59.7381 2.715 60.381 2.715 61.2857V69.6429C2.715 70.5476 2.90567 71.2143 3.28701 71.6429C3.71601 72.0238 4.38335 72.2143 5.28902 72.2143H28.0261ZM9.15004 65.7857V65.0714H26.0241C28.6935 65.0714 30.6002 64.5714 31.7442 63.5714C32.8882 62.5714 33.4602 60.9762 33.4602 58.7857V52.5C33.4602 50.2619 32.8643 48.6667 31.6727 47.7143C30.5287 46.7143 28.8603 46.2143 26.6676 46.2143H11.2236V27.2143H32.9597V27.9286H11.9386V45.5H26.6676C29.1463 45.5 31.0053 46.0714 32.2447 47.2143C33.5317 48.3095 34.1752 50.0714 34.1752 52.5V58.7857C34.1752 61.2143 33.5555 63 32.3162 64.1429C31.0768 65.2381 28.9795 65.7857 26.0241 65.7857H9.15004Z" stroke="url(#paint1_linear_9_12)" stroke-width="4" mask="url(#path-2-outside-1_9_12)"/>
<path d="M172 34.3571V58.7143C172 60.9524 171.69 63.0238 171.071 64.9286C170.451 66.7857 169.307 68.381 167.638 69.7143C166.018 71.0476 163.73 72.0952 160.774 72.8571C157.819 73.619 154.053 74 149.477 74C144.901 74 141.136 73.619 138.18 72.8571C135.225 72.0952 132.913 71.0476 131.245 69.7143C129.576 68.381 128.432 66.7857 127.813 64.9286C127.193 63.0238 126.883 60.9524 126.883 58.7143V34.3571C126.883 32.119 127.193 30.0714 127.813 28.2143C128.432 26.3095 129.576 24.6905 131.245 23.3571C132.913 21.9762 135.225 20.9048 138.18 20.1429C141.136 19.381 144.901 19 149.477 19C154.053 19 157.819 19.381 160.774 20.1429C163.73 20.9048 166.018 21.9762 167.638 23.3571C169.307 24.6905 170.451 26.3095 171.071 28.2143C171.69 30.0714 172 32.119 172 34.3571ZM171.285 58.7143V34.3571C171.285 32.1667 170.975 30.1905 170.356 28.4286C169.736 26.6191 168.616 25.0714 166.995 23.7857C165.374 22.5 163.134 21.5 160.274 20.7857C157.462 20.0714 153.863 19.7143 149.477 19.7143C145.092 19.7143 141.469 20.0714 138.609 20.7857C135.797 21.5 133.58 22.5 131.96 23.7857C130.339 25.0714 129.195 26.6191 128.528 28.4286C127.908 30.1905 127.598 32.1667 127.598 34.3571V58.7143C127.598 60.9048 127.908 62.9048 128.528 64.7143C129.195 66.4762 130.339 68 131.96 69.2857C133.58 70.5238 135.797 71.5 138.609 72.2143C141.469 72.9286 145.092 73.2857 149.477 73.2857C153.863 73.2857 157.462 72.9286 160.274 72.2143C163.134 71.5 165.374 70.5238 166.995 69.2857C168.616 68 169.736 66.4762 170.356 64.7143C170.975 62.9048 171.285 60.9048 171.285 58.7143ZM135.32 57.0714V36C135.32 34.5714 135.535 33.2619 135.964 32.0714C136.393 30.881 137.132 29.881 138.18 29.0714C139.229 28.2143 140.659 27.5476 142.47 27.0714C144.329 26.5952 146.641 26.3571 149.406 26.3571C154.935 26.3571 158.677 27.2619 160.631 29.0714C162.633 30.881 163.634 33.1905 163.634 36V57.0714C163.634 59.9286 162.633 62.2619 160.631 64.0714C158.677 65.8333 154.935 66.7143 149.406 66.7143C146.641 66.7143 144.329 66.4762 142.47 66C140.659 65.5238 139.229 64.881 138.18 64.0714C137.132 63.2143 136.393 62.1905 135.964 61C135.535 59.8095 135.32 58.5 135.32 57.0714ZM149.406 27.0714C144.306 27.0714 140.802 27.881 138.895 29.5C136.989 31.119 136.035 33.2857 136.035 36V57.0714C136.035 59.7857 136.989 61.9524 138.895 63.5714C140.802 65.1905 144.306 66 149.406 66C154.506 66 158.034 65.1905 159.988 63.5714C161.942 61.9524 162.919 59.7857 162.919 57.0714V36C162.919 33.3333 161.942 31.1905 159.988 29.5714C158.034 27.9048 154.506 27.0714 149.406 27.0714ZM143.757 56.1429V36.9286C143.757 36.0238 144.091 35.2619 144.758 34.6429C145.473 33.9762 147.046 33.6429 149.477 33.6429C151.908 33.6429 153.458 33.9762 154.125 34.6429C154.84 35.2619 155.197 36.0238 155.197 36.9286V56.1429C155.197 57.0952 154.84 57.9048 154.125 58.5714C153.458 59.1905 151.908 59.5 149.477 59.5C147.046 59.5 145.473 59.1905 144.758 58.5714C144.091 57.9048 143.757 57.0952 143.757 56.1429ZM144.472 36.9286V56.1429C144.472 57 144.83 57.6667 145.545 58.1429C146.26 58.5714 147.571 58.7857 149.477 58.7857C151.384 58.7857 152.695 58.5714 153.41 58.1429C154.125 57.6667 154.482 57 154.482 56.1429V36.9286C154.482 36.119 154.125 35.5 153.41 35.0714C152.695 34.5952 151.384 34.3571 149.477 34.3571C147.571 34.3571 146.26 34.5952 145.545 35.0714C144.83 35.5 144.472 36.119 144.472 36.9286Z" stroke="url(#paint2_linear_9_12)" stroke-width="4" mask="url(#path-2-outside-1_9_12)"/>
<defs>
<linearGradient id="paint0_linear_9_12" x1="87" y1="0" x2="87" y2="133" gradientUnits="userSpaceOnUse">
<stop stop-color="#FFF500"/>
<stop offset="0.336458" stop-color="#FF8200"/>
<stop offset="0.669792" stop-color="#FF00ED"/>
<stop offset="1" stop-color="#8F00FF"/>
</linearGradient>
<linearGradient id="paint1_linear_9_12" x1="85.1111" y1="19" x2="85.1111" y2="74" gradientUnits="userSpaceOnUse">
<stop stop-color="#9701FE"/>
<stop offset="0.508333" stop-color="#FF02EA"/>
<stop offset="1" stop-color="#FFEF01"/>
</linearGradient>
<linearGradient id="paint2_linear_9_12" x1="85.1111" y1="19" x2="85.1111" y2="74" gradientUnits="userSpaceOnUse">
<stop stop-color="#9701FE"/>
<stop offset="0.508333" stop-color="#FF02EA"/>
<stop offset="1" stop-color="#FFEF01"/>
</linearGradient>
</defs>
</svg>
