<svg xmlns="http://www.w3.org/2000/svg" xmlns:xlink="http://www.w3.org/1999/xlink" viewBox="0 0 3556.46 401.23"><defs><style>.cls-1,.cls-10,.cls-11,.cls-12,.cls-13,.cls-14,.cls-15,.cls-16,.cls-17,.cls-18,.cls-19,.cls-20,.cls-21,.cls-22,.cls-23,.cls-24,.cls-25,.cls-26,.cls-27,.cls-28,.cls-29,.cls-3,.cls-30,.cls-4,.cls-5,.cls-6,.cls-7,.cls-8,.cls-9{fill:none;}.cls-2{clip-path:url(#clip-path);}.cls-10,.cls-11,.cls-12,.cls-13,.cls-14,.cls-15,.cls-16,.cls-17,.cls-18,.cls-19,.cls-20,.cls-21,.cls-22,.cls-23,.cls-24,.cls-25,.cls-26,.cls-27,.cls-28,.cls-29,.cls-3,.cls-30,.cls-4,.cls-5,.cls-6,.cls-7,.cls-8,.cls-9{stroke-miterlimit:10;stroke-width:1.37px;}.cls-3{stroke:url(#linear-gradient);}.cls-4{stroke:url(#linear-gradient-2);}.cls-5{stroke:url(#linear-gradient-3);}.cls-6{stroke:url(#linear-gradient-4);}.cls-7{stroke:url(#linear-gradient-5);}.cls-8{stroke:url(#linear-gradient-6);}.cls-9{stroke:url(#linear-gradient-7);}.cls-10{stroke:url(#linear-gradient-8);}.cls-11{stroke:url(#linear-gradient-9);}.cls-12{stroke:url(#linear-gradient-10);}.cls-13{stroke:url(#linear-gradient-11);}.cls-14{stroke:url(#linear-gradient-12);}.cls-15{stroke:url(#linear-gradient-13);}.cls-16{stroke:url(#linear-gradient-14);}.cls-17{stroke:url(#linear-gradient-15);}.cls-18{stroke:url(#linear-gradient-16);}.cls-19{stroke:url(#linear-gradient-17);}.cls-20{stroke:url(#linear-gradient-18);}.cls-21{stroke:url(#linear-gradient-19);}.cls-22{stroke:url(#linear-gradient-20);}.cls-23{stroke:url(#linear-gradient-21);}.cls-24{stroke:url(#linear-gradient-22);}.cls-25{stroke:url(#linear-gradient-23);}.cls-26{stroke:url(#linear-gradient-24);}.cls-27{stroke:url(#linear-gradient-25);}.cls-28{stroke:url(#linear-gradient-26);}.cls-29{stroke:url(#linear-gradient-27);}.cls-30{stroke:#dd4592;}</style><clipPath id="clip-path"><rect class="cls-1" x="1264.5" y="4.79" width="1027.47" height="342.49"/></clipPath><linearGradient id="linear-gradient" x1="1462.67" y1="176.03" x2="1723.61" y2="176.03" gradientUnits="userSpaceOnUse"><stop offset="0" stop-color="#feef66"/><stop offset="0.5" stop-color="#dd4592"/></linearGradient><linearGradient id="linear-gradient-2" x1="1676.27" y1="176.03" x2="1763.91" y2="176.03" xlink:href="#linear-gradient"/><linearGradient id="linear-gradient-3" x1="1190.62" y1="200.69" x2="1667.41" y2="200.69" xlink:href="#linear-gradient"/><linearGradient id="linear-gradient-4" x1="951.91" y1="176.03" x2="1609.44" y2="176.03" xlink:href="#linear-gradient"/><linearGradient id="linear-gradient-5" x1="204.06" y1="176.03" x2="1551.76" y2="176.03" xlink:href="#linear-gradient"/><linearGradient id="linear-gradient-6" x1="0" y1="113.01" x2="1416.82" y2="113.01" xlink:href="#linear-gradient"/><linearGradient id="linear-gradient-7" x1="1832.86" y1="176.03" x2="2093.79" y2="176.03" gradientUnits="userSpaceOnUse"><stop offset="0.5" stop-color="#dd4592"/><stop offset="1" stop-color="#feef66"/></linearGradient><linearGradient id="linear-gradient-8" x1="1792.56" y1="176.03" x2="1880.19" y2="176.03" xlink:href="#linear-gradient-7"/><linearGradient id="linear-gradient-9" x1="1889.05" y1="200.69" x2="2365.85" y2="200.69" xlink:href="#linear-gradient-7"/><linearGradient id="linear-gradient-10" x1="1947.02" y1="176.03" x2="2604.56" y2="176.03" xlink:href="#linear-gradient-7"/><linearGradient id="linear-gradient-11" x1="2004.71" y1="176.03" x2="3352.4" y2="176.03" xlink:href="#linear-gradient-7"/><linearGradient id="linear-gradient-12" x1="2139.64" y1="113.01" x2="3556.46" y2="113.01" xlink:href="#linear-gradient-7"/><linearGradient id="linear-gradient-13" x1="1195.31" y1="10.04" x2="2361.15" y2="10.04" gradientUnits="userSpaceOnUse"><stop offset="0" stop-color="#feef66"/><stop offset="0.5" stop-color="#dd4592"/><stop offset="1" stop-color="#78398d"/></linearGradient><linearGradient id="linear-gradient-14" x1="1195.31" y1="16.2" x2="2361.15" y2="16.2" xlink:href="#linear-gradient-13"/><linearGradient id="linear-gradient-15" x1="1195.31" y1="22.37" x2="2361.15" y2="22.37" xlink:href="#linear-gradient-13"/><linearGradient id="linear-gradient-16" x1="1195.31" y1="28.53" x2="2361.15" y2="28.53" xlink:href="#linear-gradient-13"/><linearGradient id="linear-gradient-17" x1="1195.31" y1="37.67" x2="2361.15" y2="37.67" xlink:href="#linear-gradient-13"/><linearGradient id="linear-gradient-18" x1="1195.31" y1="46.8" x2="2361.15" y2="46.8" xlink:href="#linear-gradient-13"/><linearGradient id="linear-gradient-19" x1="1195.31" y1="55.93" x2="2361.15" y2="55.93" xlink:href="#linear-gradient-13"/><linearGradient id="linear-gradient-20" x1="1195.31" y1="71.46" x2="2361.15" y2="71.46" xlink:href="#linear-gradient-13"/><linearGradient id="linear-gradient-21" x1="1195.31" y1="86.98" x2="2361.15" y2="86.98" xlink:href="#linear-gradient-13"/><linearGradient id="linear-gradient-22" x1="1195.31" y1="106.85" x2="2361.15" y2="106.85" xlink:href="#linear-gradient-13"/><linearGradient id="linear-gradient-23" x1="1197.26" y1="129.57" x2="2363.09" y2="129.57" xlink:href="#linear-gradient-13"/><linearGradient id="linear-gradient-24" x1="1197.26" y1="156.45" x2="2363.09" y2="156.45" xlink:href="#linear-gradient-13"/><linearGradient id="linear-gradient-25" x1="1197.26" y1="189.5" x2="2363.09" y2="189.5" xlink:href="#linear-gradient-13"/><linearGradient id="linear-gradient-26" x1="1195.31" y1="233.8" x2="2361.15" y2="233.8" xlink:href="#linear-gradient-13"/><linearGradient id="linear-gradient-27" x1="1195.31" y1="293.39" x2="2361.15" y2="293.39" xlink:href="#linear-gradient-13"/></defs><title>nFichier 1</title><g id="Calque_2" data-name="Calque 2"><g id="Calque_1-2" data-name="Calque 1"><g class="cls-2"><line class="cls-3" x1="1463.22" y1="351.39" x2="1723.06" y2="0.68"/><line class="cls-4" x1="1676.94" y1="351.39" x2="1763.24" y2="0.68"/><line class="cls-5" x1="1191.06" y1="400.7" x2="1666.97" y2="0.68"/><line class="cls-6" x1="952.23" y1="351.39" x2="1609.12" y2="0.68"/><line class="cls-7" x1="204.23" y1="351.39" x2="1551.58" y2="0.68"/><line class="cls-8" x1="0.11" y1="225.35" x2="1416.71" y2="0.68"/><line class="cls-9" x1="2093.24" y1="351.39" x2="1833.41" y2="0.68"/><line class="cls-10" x1="1879.53" y1="351.39" x2="1793.22" y2="0.68"/><line class="cls-11" x1="2365.41" y1="400.7" x2="1889.49" y2="0.68"/><line class="cls-12" x1="2604.24" y1="351.39" x2="1947.34" y2="0.68"/><line class="cls-13" x1="3352.23" y1="351.39" x2="2004.88" y2="0.68"/><line class="cls-14" x1="3556.36" y1="225.35" x2="2139.75" y2="0.68"/><line class="cls-15" x1="1195.31" y1="10.04" x2="2361.15" y2="10.04"/><line class="cls-16" x1="1195.31" y1="16.2" x2="2361.15" y2="16.2"/><line class="cls-17" x1="1195.31" y1="22.37" x2="2361.15" y2="22.37"/><line class="cls-18" x1="1195.31" y1="28.53" x2="2361.15" y2="28.53"/><line class="cls-19" x1="1195.31" y1="37.67" x2="2361.15" y2="37.67"/><line class="cls-20" x1="1195.31" y1="46.8" x2="2361.15" y2="46.8"/><line class="cls-21" x1="1195.31" y1="55.93" x2="2361.15" y2="55.93"/><line class="cls-22" x1="1195.31" y1="71.46" x2="2361.15" y2="71.46"/><line class="cls-23" x1="1195.31" y1="86.98" x2="2361.15" y2="86.98"/><line class="cls-24" x1="1195.31" y1="106.85" x2="2361.15" y2="106.85"/><line class="cls-25" x1="1197.26" y1="129.57" x2="2363.09" y2="129.57"/><line class="cls-26" x1="1197.26" y1="156.45" x2="2363.09" y2="156.45"/><line class="cls-27" x1="1197.26" y1="189.5" x2="2363.09" y2="189.5"/><line class="cls-28" x1="1195.31" y1="233.8" x2="2361.15" y2="233.8"/><line class="cls-29" x1="1195.31" y1="293.39" x2="2361.15" y2="293.39"/></g><line class="cls-30" x1="2291.97" y1="4.79" x2="1264.5" y2="4.79"/></g></g></svg>