<svg xmlns="http://www.w3.org/2000/svg" xmlns:xlink="http://www.w3.org/1999/xlink" viewBox="0 0 2651.01 295.98"><defs><style>.cls-1,.cls-10,.cls-11,.cls-12,.cls-13,.cls-2,.cls-3,.cls-4,.cls-5,.cls-6,.cls-7,.cls-8,.cls-9{fill:none;}.cls-1,.cls-10,.cls-11,.cls-12,.cls-2,.cls-3,.cls-4,.cls-5,.cls-6,.cls-7,.cls-8,.cls-9{stroke-miterlimit:10;stroke-width:1.02px;}.cls-1{stroke:url(#linear-gradient);}.cls-2{stroke:url(#linear-gradient-2);}.cls-3{stroke:url(#linear-gradient-3);}.cls-4{stroke:url(#linear-gradient-4);}.cls-5{stroke:url(#linear-gradient-5);}.cls-6{stroke:url(#linear-gradient-6);}.cls-7{stroke:url(#linear-gradient-7);}.cls-8{stroke:url(#linear-gradient-8);}.cls-9{stroke:url(#linear-gradient-9);}.cls-10{stroke:url(#linear-gradient-10);}.cls-11{stroke:url(#linear-gradient-11);}.cls-12{stroke:url(#linear-gradient-12);}</style><linearGradient id="linear-gradient" x1="1090.29" y1="129.86" x2="1284.78" y2="129.86" gradientUnits="userSpaceOnUse"><stop offset="0" stop-color="#fff064"/><stop offset="0.5" stop-color="#f72ea5"/></linearGradient><linearGradient id="linear-gradient-2" x1="1249.5" y1="129.86" x2="1314.82" y2="129.86" xlink:href="#linear-gradient"/><linearGradient id="linear-gradient-3" x1="887.49" y1="148.05" x2="1242.89" y2="148.05" xlink:href="#linear-gradient"/><linearGradient id="linear-gradient-4" x1="709.56" y1="129.86" x2="1199.69" y2="129.86" xlink:href="#linear-gradient"/><linearGradient id="linear-gradient-5" x1="152.11" y1="129.86" x2="1156.69" y2="129.86" xlink:href="#linear-gradient"/><linearGradient id="linear-gradient-6" x1="0" y1="83.37" x2="1056.1" y2="83.37" xlink:href="#linear-gradient"/><linearGradient id="linear-gradient-7" x1="1366.22" y1="129.86" x2="1560.72" y2="129.86" gradientUnits="userSpaceOnUse"><stop offset="0.5" stop-color="#f72ea5"/><stop offset="1" stop-color="#fff064"/></linearGradient><linearGradient id="linear-gradient-8" x1="1336.18" y1="129.86" x2="1401.5" y2="129.86" xlink:href="#linear-gradient-7"/><linearGradient id="linear-gradient-9" x1="1408.11" y1="148.05" x2="1763.51" y2="148.05" xlink:href="#linear-gradient-7"/><linearGradient id="linear-gradient-10" x1="1451.32" y1="129.86" x2="1941.45" y2="129.86" xlink:href="#linear-gradient-7"/><linearGradient id="linear-gradient-11" x1="1494.32" y1="129.86" x2="2498.9" y2="129.86" xlink:href="#linear-gradient-7"/><linearGradient id="linear-gradient-12" x1="1594.9" y1="83.37" x2="2651.01" y2="83.37" xlink:href="#linear-gradient-7"/></defs><title>nFichier 6</title><g id="Calque_2" data-name="Calque 2"><g id="BACKGROUND_1" data-name="BACKGROUND 1"><line class="cls-1" x1="1090.69" y1="259.21" x2="1284.38" y2="0.5"/><line class="cls-2" x1="1250" y1="259.21" x2="1314.33" y2="0.5"/><line class="cls-3" x1="887.82" y1="295.59" x2="1242.57" y2="0.5"/><line class="cls-4" x1="709.79" y1="259.21" x2="1199.45" y2="0.5"/><line class="cls-5" x1="152.23" y1="259.21" x2="1156.56" y2="0.5"/><line class="cls-6" x1="0.08" y1="166.24" x2="1056.02" y2="0.5"/><line class="cls-7" x1="1560.31" y1="259.21" x2="1366.63" y2="0.5"/><line class="cls-8" x1="1401.01" y1="259.21" x2="1336.68" y2="0.5"/><line class="cls-9" x1="1763.19" y1="295.59" x2="1408.44" y2="0.5"/><line class="cls-10" x1="1941.21" y1="259.21" x2="1451.56" y2="0.5"/><line class="cls-11" x1="2498.77" y1="259.21" x2="1494.45" y2="0.5"/><line class="cls-12" x1="2650.93" y1="166.24" x2="1594.98" y2="0.5"/><rect class="cls-13" x="942.56" y="3.53" width="765.88" height="252.65"/></g></g></svg>