<svg xmlns="http://www.w3.org/2000/svg" xmlns:xlink="http://www.w3.org/1999/xlink" viewBox="0 0 757.85 521.52"><defs><style>.cls-1,.cls-10,.cls-11,.cls-12,.cls-13,.cls-14,.cls-15,.cls-16,.cls-17,.cls-18,.cls-19,.cls-2,.cls-20,.cls-21,.cls-22,.cls-23,.cls-24,.cls-25,.cls-26,.cls-27,.cls-28,.cls-29,.cls-3,.cls-30,.cls-31,.cls-32,.cls-33,.cls-34,.cls-35,.cls-36,.cls-37,.cls-38,.cls-39,.cls-4,.cls-40,.cls-41,.cls-42,.cls-43,.cls-44,.cls-45,.cls-46,.cls-47,.cls-48,.cls-49,.cls-5,.cls-50,.cls-51,.cls-52,.cls-53,.cls-54,.cls-55,.cls-56,.cls-57,.cls-58,.cls-6,.cls-7,.cls-8,.cls-9{fill:none;stroke-miterlimit:10;stroke-width:0.25px;}.cls-1{stroke:url(#linear-gradient);}.cls-2{stroke:url(#linear-gradient-2);}.cls-3{stroke:url(#linear-gradient-3);}.cls-4{stroke:url(#linear-gradient-4);}.cls-5{stroke:url(#linear-gradient-5);}.cls-6{stroke:url(#linear-gradient-6);}.cls-7{stroke:url(#linear-gradient-7);}.cls-8{stroke:url(#linear-gradient-8);}.cls-9{stroke:url(#linear-gradient-9);}.cls-10{stroke:url(#linear-gradient-10);}.cls-11{stroke:url(#linear-gradient-11);}.cls-12{stroke:url(#linear-gradient-12);}.cls-13{stroke:url(#linear-gradient-13);}.cls-14{stroke:url(#linear-gradient-14);}.cls-15{stroke:url(#linear-gradient-15);}.cls-16{stroke:url(#linear-gradient-16);}.cls-17{stroke:url(#linear-gradient-17);}.cls-18{stroke:url(#linear-gradient-18);}.cls-19{stroke:url(#linear-gradient-19);}.cls-20{stroke:url(#linear-gradient-20);}.cls-21{stroke:url(#linear-gradient-21);}.cls-22{stroke:url(#linear-gradient-22);}.cls-23{stroke:url(#linear-gradient-23);}.cls-24{stroke:url(#linear-gradient-24);}.cls-25{stroke:url(#linear-gradient-25);}.cls-26{stroke:url(#linear-gradient-26);}.cls-27{stroke:url(#linear-gradient-27);}.cls-28{stroke:url(#linear-gradient-28);}.cls-29{stroke:url(#linear-gradient-29);}.cls-30{stroke:url(#linear-gradient-30);}.cls-31{stroke:url(#linear-gradient-31);}.cls-32{stroke:url(#linear-gradient-32);}.cls-33{stroke:url(#linear-gradient-33);}.cls-34{stroke:url(#linear-gradient-34);}.cls-35{stroke:url(#linear-gradient-35);}.cls-36{stroke:url(#linear-gradient-36);}.cls-37{stroke:url(#linear-gradient-37);}.cls-38{stroke:url(#linear-gradient-38);}.cls-39{stroke:url(#linear-gradient-39);}.cls-40{stroke:url(#linear-gradient-40);}.cls-41{stroke:url(#linear-gradient-41);}.cls-42{stroke:url(#linear-gradient-42);}.cls-43{stroke:url(#linear-gradient-43);}.cls-44{stroke:url(#linear-gradient-44);}.cls-45{stroke:url(#linear-gradient-45);}.cls-46{stroke:url(#linear-gradient-46);}.cls-47{stroke:url(#linear-gradient-47);}.cls-48{stroke:url(#linear-gradient-48);}.cls-49{stroke:url(#linear-gradient-49);}.cls-50{stroke:url(#linear-gradient-50);}.cls-51{stroke:url(#linear-gradient-51);}.cls-52{stroke:url(#linear-gradient-52);}.cls-53{stroke:url(#linear-gradient-53);}.cls-54{stroke:url(#linear-gradient-54);}.cls-55{stroke:url(#linear-gradient-55);}.cls-56{stroke:url(#linear-gradient-56);}.cls-57{stroke:url(#linear-gradient-57);}.cls-58{stroke:url(#linear-gradient-58);}</style><linearGradient id="linear-gradient" y1="0.13" x2="757.85" y2="0.13" gradientUnits="userSpaceOnUse"><stop offset="0" stop-color="#12084c"/><stop offset="0.53" stop-color="#ee2a7b"/><stop offset="1" stop-color="#fbb040"/></linearGradient><linearGradient id="linear-gradient-2" y1="9.29" x2="757.85" y2="9.29" xlink:href="#linear-gradient"/><linearGradient id="linear-gradient-3" y1="18.46" x2="757.85" y2="18.46" xlink:href="#linear-gradient"/><linearGradient id="linear-gradient-4" y1="27.63" x2="757.85" y2="27.63" xlink:href="#linear-gradient"/><linearGradient id="linear-gradient-5" y1="36.79" x2="757.85" y2="36.79" xlink:href="#linear-gradient"/><linearGradient id="linear-gradient-6" y1="45.96" x2="757.85" y2="45.96" xlink:href="#linear-gradient"/><linearGradient id="linear-gradient-7" y1="55.13" x2="757.85" y2="55.13" xlink:href="#linear-gradient"/><linearGradient id="linear-gradient-8" y1="64.29" x2="757.85" y2="64.29" xlink:href="#linear-gradient"/><linearGradient id="linear-gradient-9" y1="73.46" x2="757.85" y2="73.46" xlink:href="#linear-gradient"/><linearGradient id="linear-gradient-10" y1="82.63" x2="757.85" y2="82.63" xlink:href="#linear-gradient"/><linearGradient id="linear-gradient-11" y1="91.79" x2="757.85" y2="91.79" xlink:href="#linear-gradient"/><linearGradient id="linear-gradient-12" y1="100.96" x2="757.85" y2="100.96" xlink:href="#linear-gradient"/><linearGradient id="linear-gradient-13" y1="110.13" x2="757.85" y2="110.13" xlink:href="#linear-gradient"/><linearGradient id="linear-gradient-14" y1="119.29" x2="757.85" y2="119.29" xlink:href="#linear-gradient"/><linearGradient id="linear-gradient-15" y1="128.46" x2="757.85" y2="128.46" xlink:href="#linear-gradient"/><linearGradient id="linear-gradient-16" y1="137.63" x2="757.85" y2="137.63" xlink:href="#linear-gradient"/><linearGradient id="linear-gradient-17" y1="146.79" x2="757.85" y2="146.79" xlink:href="#linear-gradient"/><linearGradient id="linear-gradient-18" y1="155.96" x2="757.85" y2="155.96" xlink:href="#linear-gradient"/><linearGradient id="linear-gradient-19" y1="165.13" x2="757.85" y2="165.13" xlink:href="#linear-gradient"/><linearGradient id="linear-gradient-20" y1="174.29" x2="757.85" y2="174.29" xlink:href="#linear-gradient"/><linearGradient id="linear-gradient-21" y1="183.46" x2="757.85" y2="183.46" xlink:href="#linear-gradient"/><linearGradient id="linear-gradient-22" y1="192.63" x2="757.85" y2="192.63" xlink:href="#linear-gradient"/><linearGradient id="linear-gradient-23" y1="201.79" x2="757.85" y2="201.79" xlink:href="#linear-gradient"/><linearGradient id="linear-gradient-24" y1="210.96" x2="757.85" y2="210.96" xlink:href="#linear-gradient"/><linearGradient id="linear-gradient-25" y1="220.13" x2="757.85" y2="220.13" xlink:href="#linear-gradient"/><linearGradient id="linear-gradient-26" y1="229.29" x2="757.85" y2="229.29" xlink:href="#linear-gradient"/><linearGradient id="linear-gradient-27" y1="238.46" x2="757.85" y2="238.46" xlink:href="#linear-gradient"/><linearGradient id="linear-gradient-28" y1="247.63" x2="757.85" y2="247.63" xlink:href="#linear-gradient"/><linearGradient id="linear-gradient-29" y1="256.79" x2="757.85" y2="256.79" xlink:href="#linear-gradient"/><linearGradient id="linear-gradient-30" y1="264.73" x2="757.85" y2="264.73" xlink:href="#linear-gradient"/><linearGradient id="linear-gradient-31" y1="273.89" x2="757.85" y2="273.89" xlink:href="#linear-gradient"/><linearGradient id="linear-gradient-32" y1="283.06" x2="757.85" y2="283.06" xlink:href="#linear-gradient"/><linearGradient id="linear-gradient-33" y1="292.23" x2="757.85" y2="292.23" xlink:href="#linear-gradient"/><linearGradient id="linear-gradient-34" y1="301.39" x2="757.85" y2="301.39" xlink:href="#linear-gradient"/><linearGradient id="linear-gradient-35" y1="310.56" x2="757.85" y2="310.56" xlink:href="#linear-gradient"/><linearGradient id="linear-gradient-36" y1="319.73" x2="757.85" y2="319.73" xlink:href="#linear-gradient"/><linearGradient id="linear-gradient-37" y1="328.89" x2="757.85" y2="328.89" xlink:href="#linear-gradient"/><linearGradient id="linear-gradient-38" y1="338.06" x2="757.85" y2="338.06" xlink:href="#linear-gradient"/><linearGradient id="linear-gradient-39" y1="347.23" x2="757.85" y2="347.23" xlink:href="#linear-gradient"/><linearGradient id="linear-gradient-40" y1="356.39" x2="757.85" y2="356.39" xlink:href="#linear-gradient"/><linearGradient id="linear-gradient-41" y1="365.56" x2="757.85" y2="365.56" xlink:href="#linear-gradient"/><linearGradient id="linear-gradient-42" y1="374.73" x2="757.85" y2="374.73" xlink:href="#linear-gradient"/><linearGradient id="linear-gradient-43" y1="383.89" x2="757.85" y2="383.89" xlink:href="#linear-gradient"/><linearGradient id="linear-gradient-44" y1="393.06" x2="757.85" y2="393.06" xlink:href="#linear-gradient"/><linearGradient id="linear-gradient-45" y1="402.23" x2="757.85" y2="402.23" xlink:href="#linear-gradient"/><linearGradient id="linear-gradient-46" y1="411.39" x2="757.85" y2="411.39" xlink:href="#linear-gradient"/><linearGradient id="linear-gradient-47" y1="420.56" x2="757.85" y2="420.56" xlink:href="#linear-gradient"/><linearGradient id="linear-gradient-48" y1="429.73" x2="757.85" y2="429.73" xlink:href="#linear-gradient"/><linearGradient id="linear-gradient-49" y1="438.89" x2="757.85" y2="438.89" xlink:href="#linear-gradient"/><linearGradient id="linear-gradient-50" y1="448.06" x2="757.85" y2="448.06" xlink:href="#linear-gradient"/><linearGradient id="linear-gradient-51" y1="457.23" x2="757.85" y2="457.23" xlink:href="#linear-gradient"/><linearGradient id="linear-gradient-52" y1="466.39" x2="757.85" y2="466.39" xlink:href="#linear-gradient"/><linearGradient id="linear-gradient-53" y1="475.56" x2="757.85" y2="475.56" xlink:href="#linear-gradient"/><linearGradient id="linear-gradient-54" y1="484.73" x2="757.85" y2="484.73" xlink:href="#linear-gradient"/><linearGradient id="linear-gradient-55" y1="493.89" x2="757.85" y2="493.89" xlink:href="#linear-gradient"/><linearGradient id="linear-gradient-56" y1="503.06" x2="757.85" y2="503.06" xlink:href="#linear-gradient"/><linearGradient id="linear-gradient-57" y1="512.23" x2="757.85" y2="512.23" xlink:href="#linear-gradient"/><linearGradient id="linear-gradient-58" y1="521.39" x2="757.85" y2="521.39" xlink:href="#linear-gradient"/></defs><title>nFichier 1</title><g id="Calque_2" data-name="Calque 2"><g id="BACKGROUND_1" data-name="BACKGROUND 1"><line class="cls-1" y1="0.13" x2="757.85" y2="0.13"/><line class="cls-2" y1="9.29" x2="757.85" y2="9.29"/><line class="cls-3" y1="18.46" x2="757.85" y2="18.46"/><line class="cls-4" y1="27.63" x2="757.85" y2="27.63"/><line class="cls-5" y1="36.79" x2="757.85" y2="36.79"/><line class="cls-6" y1="45.96" x2="757.85" y2="45.96"/><line class="cls-7" y1="55.13" x2="757.85" y2="55.13"/><line class="cls-8" y1="64.29" x2="757.85" y2="64.29"/><line class="cls-9" y1="73.46" x2="757.85" y2="73.46"/><line class="cls-10" y1="82.63" x2="757.85" y2="82.63"/><line class="cls-11" y1="91.79" x2="757.85" y2="91.79"/><line class="cls-12" y1="100.96" x2="757.85" y2="100.96"/><line class="cls-13" y1="110.13" x2="757.85" y2="110.13"/><line class="cls-14" y1="119.29" x2="757.85" y2="119.29"/><line class="cls-15" y1="128.46" x2="757.85" y2="128.46"/><line class="cls-16" y1="137.63" x2="757.85" y2="137.63"/><line class="cls-17" y1="146.79" x2="757.85" y2="146.79"/><line class="cls-18" y1="155.96" x2="757.85" y2="155.96"/><line class="cls-19" y1="165.13" x2="757.85" y2="165.13"/><line class="cls-20" y1="174.29" x2="757.85" y2="174.29"/><line class="cls-21" y1="183.46" x2="757.85" y2="183.46"/><line class="cls-22" y1="192.63" x2="757.85" y2="192.63"/><line class="cls-23" y1="201.79" x2="757.85" y2="201.79"/><line class="cls-24" y1="210.96" x2="757.85" y2="210.96"/><line class="cls-25" y1="220.13" x2="757.85" y2="220.13"/><line class="cls-26" y1="229.29" x2="757.85" y2="229.29"/><line class="cls-27" y1="238.46" x2="757.85" y2="238.46"/><line class="cls-28" y1="247.63" x2="757.85" y2="247.63"/><line class="cls-29" y1="256.79" x2="757.85" y2="256.79"/><line class="cls-30" y1="264.73" x2="757.85" y2="264.73"/><line class="cls-31" y1="273.89" x2="757.85" y2="273.89"/><line class="cls-32" y1="283.06" x2="757.85" y2="283.06"/><line class="cls-33" y1="292.23" x2="757.85" y2="292.23"/><line class="cls-34" y1="301.39" x2="757.85" y2="301.39"/><line class="cls-35" y1="310.56" x2="757.85" y2="310.56"/><line class="cls-36" y1="319.73" x2="757.85" y2="319.73"/><line class="cls-37" y1="328.89" x2="757.85" y2="328.89"/><line class="cls-38" y1="338.06" x2="757.85" y2="338.06"/><line class="cls-39" y1="347.23" x2="757.85" y2="347.23"/><line class="cls-40" y1="356.39" x2="757.85" y2="356.39"/><line class="cls-41" y1="365.56" x2="757.85" y2="365.56"/><line class="cls-42" y1="374.73" x2="757.85" y2="374.73"/><line class="cls-43" y1="383.89" x2="757.85" y2="383.89"/><line class="cls-44" y1="393.06" x2="757.85" y2="393.06"/><line class="cls-45" y1="402.23" x2="757.85" y2="402.23"/><line class="cls-46" y1="411.39" x2="757.85" y2="411.39"/><line class="cls-47" y1="420.56" x2="757.85" y2="420.56"/><line class="cls-48" y1="429.73" x2="757.85" y2="429.73"/><line class="cls-49" y1="438.89" x2="757.85" y2="438.89"/><line class="cls-50" y1="448.06" x2="757.85" y2="448.06"/><line class="cls-51" y1="457.23" x2="757.85" y2="457.23"/><line class="cls-52" y1="466.39" x2="757.85" y2="466.39"/><line class="cls-53" y1="475.56" x2="757.85" y2="475.56"/><line class="cls-54" y1="484.73" x2="757.85" y2="484.73"/><line class="cls-55" y1="493.89" x2="757.85" y2="493.89"/><line class="cls-56" y1="503.06" x2="757.85" y2="503.06"/><line class="cls-57" y1="512.23" x2="757.85" y2="512.23"/><line class="cls-58" y1="521.39" x2="757.85" y2="521.39"/></g></g></svg>