<svg width="1739" height="148" viewBox="0 0 1739 148" fill="none" xmlns="http://www.w3.org/2000/svg">
<mask id="path-1-outside-1_8_8" maskUnits="userSpaceOnUse" x="1487.77" y="0" width="251" height="148" fill="black">
<rect fill="white" x="1487.77" width="251" height="148"/>
<path d="M1499.23 141.92C1496.29 141.92 1494.14 141.245 1492.79 139.896C1491.44 138.547 1490.77 136.4 1490.77 133.456V111.928C1490.77 108.984 1491.44 106.837 1492.79 105.488C1494.14 104.139 1496.29 103.464 1499.23 103.464H1546.71C1547.56 103.464 1548.3 103.28 1548.91 102.912C1549.53 102.544 1549.83 101.931 1549.83 101.072V93.896C1549.83 93.0373 1549.53 92.424 1548.91 92.056C1548.3 91.688 1547.56 91.504 1546.71 91.504H1501.07C1498.13 91.504 1495.98 90.8293 1494.63 89.48C1493.28 88.1307 1492.61 85.984 1492.61 83.04V14.224C1492.61 11.28 1493.28 9.13334 1494.63 7.784C1495.98 6.43467 1498.13 5.76001 1501.07 5.76001H1580.38C1583.32 5.76001 1585.47 6.43467 1586.82 7.784C1588.17 9.13334 1588.84 11.28 1588.84 14.224V36.12C1588.84 39.064 1588.17 41.2107 1586.82 42.56C1585.47 43.9093 1583.32 44.584 1580.38 44.584H1538.06V52.864H1561.43C1571.98 52.864 1580.26 55.5013 1586.27 60.776C1592.4 65.928 1595.47 73.656 1595.47 83.96V109.536C1595.47 119.349 1592.09 127.2 1585.35 133.088C1578.6 138.976 1569.4 141.92 1557.75 141.92H1499.23ZM1557.75 140.08C1568.79 140.08 1577.5 137.32 1583.87 131.8C1590.38 126.28 1593.63 118.859 1593.63 109.536V83.96C1593.63 74.2693 1590.74 66.9707 1584.98 62.064C1579.21 57.1573 1571.36 54.704 1561.43 54.704H1536.22V42.744H1580.38C1582.71 42.744 1584.36 42.2533 1585.35 41.272C1586.45 40.168 1587 38.4507 1587 36.12V14.224C1587 11.8933 1586.45 10.2373 1585.35 9.25601C1584.36 8.15201 1582.71 7.60001 1580.38 7.60001H1501.07C1498.74 7.60001 1497.03 8.15201 1495.92 9.25601C1494.94 10.2373 1494.45 11.8933 1494.45 14.224V83.04C1494.45 85.3707 1494.94 87.088 1495.92 88.192C1497.03 89.1733 1498.74 89.664 1501.07 89.664H1546.71C1548.18 89.664 1549.34 90.032 1550.2 90.768C1551.18 91.3813 1551.67 92.424 1551.67 93.896V101.072C1551.67 102.544 1551.18 103.648 1550.2 104.384C1549.34 104.997 1548.18 105.304 1546.71 105.304H1499.23C1496.9 105.304 1495.19 105.856 1494.08 106.96C1493.1 107.941 1492.61 109.597 1492.61 111.928V133.456C1492.61 135.787 1493.1 137.504 1494.08 138.608C1495.19 139.589 1496.9 140.08 1499.23 140.08H1557.75ZM1509.17 123.52V121.68H1552.59C1559.46 121.68 1564.37 120.392 1567.31 117.816C1570.26 115.24 1571.73 111.131 1571.73 105.488V89.296C1571.73 83.5307 1570.2 79.4213 1567.13 76.968C1564.19 74.392 1559.89 73.104 1554.25 73.104H1514.51V24.16H1570.44V26H1516.35V71.264H1554.25C1560.63 71.264 1565.41 72.736 1568.6 75.68C1571.91 78.5013 1573.57 83.04 1573.57 89.296V105.488C1573.57 111.744 1571.98 116.344 1568.79 119.288C1565.6 122.109 1560.2 123.52 1552.59 123.52H1509.17Z"/>
<path d="M1735.76 42.56V105.304C1735.76 111.069 1734.96 116.405 1733.37 121.312C1731.77 126.096 1728.83 130.205 1724.53 133.64C1720.36 137.075 1714.48 139.773 1706.87 141.736C1699.27 143.699 1689.57 144.68 1677.8 144.68C1666.02 144.68 1656.33 143.699 1648.73 141.736C1641.12 139.773 1635.17 137.075 1630.88 133.64C1626.59 130.205 1623.64 126.096 1622.05 121.312C1620.45 116.405 1619.65 111.069 1619.65 105.304V42.56C1619.65 36.7947 1620.45 31.52 1622.05 26.736C1623.64 21.8293 1626.59 17.6587 1630.88 14.224C1635.17 10.6667 1641.12 7.90667 1648.73 5.94401C1656.33 3.98134 1666.02 3 1677.8 3C1689.57 3 1699.27 3.98134 1706.87 5.94401C1714.48 7.90667 1720.36 10.6667 1724.53 14.224C1728.83 17.6587 1731.77 21.8293 1733.37 26.736C1734.96 31.52 1735.76 36.7947 1735.76 42.56ZM1733.92 105.304V42.56C1733.92 36.9173 1733.12 31.8267 1731.53 27.288C1729.93 22.6267 1727.05 18.64 1722.88 15.328C1718.71 12.016 1712.94 9.44 1705.58 7.60001C1698.35 5.76001 1689.08 4.84001 1677.8 4.84001C1666.51 4.84001 1657.19 5.76001 1649.83 7.60001C1642.59 9.44 1636.89 12.016 1632.72 15.328C1628.55 18.64 1625.6 22.6267 1623.89 27.288C1622.29 31.8267 1621.49 36.9173 1621.49 42.56V105.304C1621.49 110.947 1622.29 116.099 1623.89 120.76C1625.6 125.299 1628.55 129.224 1632.72 132.536C1636.89 135.725 1642.59 138.24 1649.83 140.08C1657.19 141.92 1666.51 142.84 1677.8 142.84C1689.08 142.84 1698.35 141.92 1705.58 140.08C1712.94 138.24 1718.71 135.725 1722.88 132.536C1727.05 129.224 1729.93 125.299 1731.53 120.76C1733.12 116.099 1733.92 110.947 1733.92 105.304ZM1641.37 101.072V46.792C1641.37 43.112 1641.92 39.7387 1643.02 36.672C1644.13 33.6053 1646.03 31.0293 1648.73 28.944C1651.43 26.736 1655.11 25.0187 1659.77 23.792C1664.55 22.5653 1670.5 21.952 1677.61 21.952C1691.84 21.952 1701.47 24.2827 1706.5 28.944C1711.65 33.6053 1714.23 39.5547 1714.23 46.792V101.072C1714.23 108.432 1711.65 114.443 1706.5 119.104C1701.47 123.643 1691.84 125.912 1677.61 125.912C1670.5 125.912 1664.55 125.299 1659.77 124.072C1655.11 122.845 1651.43 121.189 1648.73 119.104C1646.03 116.896 1644.13 114.259 1643.02 111.192C1641.92 108.125 1641.37 104.752 1641.37 101.072ZM1677.61 23.792C1664.49 23.792 1655.47 25.8773 1650.57 30.048C1645.66 34.2187 1643.21 39.8 1643.21 46.792V101.072C1643.21 108.064 1645.66 113.645 1650.57 117.816C1655.47 121.987 1664.49 124.072 1677.61 124.072C1690.74 124.072 1699.82 121.987 1704.85 117.816C1709.88 113.645 1712.39 108.064 1712.39 101.072V46.792C1712.39 39.9227 1709.88 34.4027 1704.85 30.232C1699.82 25.9387 1690.74 23.792 1677.61 23.792ZM1663.08 98.68V49.184C1663.08 46.8533 1663.94 44.8907 1665.65 43.296C1667.49 41.5787 1671.54 40.72 1677.8 40.72C1684.05 40.72 1688.04 41.5787 1689.76 43.296C1691.6 44.8907 1692.52 46.8533 1692.52 49.184V98.68C1692.52 101.133 1691.6 103.219 1689.76 104.936C1688.04 106.531 1684.05 107.328 1677.8 107.328C1671.54 107.328 1667.49 106.531 1665.65 104.936C1663.94 103.219 1663.08 101.133 1663.08 98.68ZM1664.92 49.184V98.68C1664.92 100.888 1665.84 102.605 1667.68 103.832C1669.52 104.936 1672.89 105.488 1677.8 105.488C1682.71 105.488 1686.08 104.936 1687.92 103.832C1689.76 102.605 1690.68 100.888 1690.68 98.68V49.184C1690.68 47.0987 1689.76 45.504 1687.92 44.4C1686.08 43.1733 1682.71 42.56 1677.8 42.56C1672.89 42.56 1669.52 43.1733 1667.68 44.4C1665.84 45.504 1664.92 47.0987 1664.92 49.184Z"/>
</mask>
<path d="M1499.23 141.92C1496.29 141.92 1494.14 141.245 1492.79 139.896C1491.44 138.547 1490.77 136.4 1490.77 133.456V111.928C1490.77 108.984 1491.44 106.837 1492.79 105.488C1494.14 104.139 1496.29 103.464 1499.23 103.464H1546.71C1547.56 103.464 1548.3 103.28 1548.91 102.912C1549.53 102.544 1549.83 101.931 1549.83 101.072V93.896C1549.83 93.0373 1549.53 92.424 1548.91 92.056C1548.3 91.688 1547.56 91.504 1546.71 91.504H1501.07C1498.13 91.504 1495.98 90.8293 1494.63 89.48C1493.28 88.1307 1492.61 85.984 1492.61 83.04V14.224C1492.61 11.28 1493.28 9.13334 1494.63 7.784C1495.98 6.43467 1498.13 5.76001 1501.07 5.76001H1580.38C1583.32 5.76001 1585.47 6.43467 1586.82 7.784C1588.17 9.13334 1588.84 11.28 1588.84 14.224V36.12C1588.84 39.064 1588.17 41.2107 1586.82 42.56C1585.47 43.9093 1583.32 44.584 1580.38 44.584H1538.06V52.864H1561.43C1571.98 52.864 1580.26 55.5013 1586.27 60.776C1592.4 65.928 1595.47 73.656 1595.47 83.96V109.536C1595.47 119.349 1592.09 127.2 1585.35 133.088C1578.6 138.976 1569.4 141.92 1557.75 141.92H1499.23ZM1557.75 140.08C1568.79 140.08 1577.5 137.32 1583.87 131.8C1590.38 126.28 1593.63 118.859 1593.63 109.536V83.96C1593.63 74.2693 1590.74 66.9707 1584.98 62.064C1579.21 57.1573 1571.36 54.704 1561.43 54.704H1536.22V42.744H1580.38C1582.71 42.744 1584.36 42.2533 1585.35 41.272C1586.45 40.168 1587 38.4507 1587 36.12V14.224C1587 11.8933 1586.45 10.2373 1585.35 9.25601C1584.36 8.15201 1582.71 7.60001 1580.38 7.60001H1501.07C1498.74 7.60001 1497.03 8.15201 1495.92 9.25601C1494.94 10.2373 1494.45 11.8933 1494.45 14.224V83.04C1494.45 85.3707 1494.94 87.088 1495.92 88.192C1497.03 89.1733 1498.74 89.664 1501.07 89.664H1546.71C1548.18 89.664 1549.34 90.032 1550.2 90.768C1551.18 91.3813 1551.67 92.424 1551.67 93.896V101.072C1551.67 102.544 1551.18 103.648 1550.2 104.384C1549.34 104.997 1548.18 105.304 1546.71 105.304H1499.23C1496.9 105.304 1495.19 105.856 1494.08 106.96C1493.1 107.941 1492.61 109.597 1492.61 111.928V133.456C1492.61 135.787 1493.1 137.504 1494.08 138.608C1495.19 139.589 1496.9 140.08 1499.23 140.08H1557.75ZM1509.17 123.52V121.68H1552.59C1559.46 121.68 1564.37 120.392 1567.31 117.816C1570.26 115.24 1571.73 111.131 1571.73 105.488V89.296C1571.73 83.5307 1570.2 79.4213 1567.13 76.968C1564.19 74.392 1559.89 73.104 1554.25 73.104H1514.51V24.16H1570.44V26H1516.35V71.264H1554.25C1560.63 71.264 1565.41 72.736 1568.6 75.68C1571.91 78.5013 1573.57 83.04 1573.57 89.296V105.488C1573.57 111.744 1571.98 116.344 1568.79 119.288C1565.6 122.109 1560.2 123.52 1552.59 123.52H1509.17Z" fill="#FFE940"/>
<path d="M1735.76 42.56V105.304C1735.76 111.069 1734.96 116.405 1733.37 121.312C1731.77 126.096 1728.83 130.205 1724.53 133.64C1720.36 137.075 1714.48 139.773 1706.87 141.736C1699.27 143.699 1689.57 144.68 1677.8 144.68C1666.02 144.68 1656.33 143.699 1648.73 141.736C1641.12 139.773 1635.17 137.075 1630.88 133.64C1626.59 130.205 1623.64 126.096 1622.05 121.312C1620.45 116.405 1619.65 111.069 1619.65 105.304V42.56C1619.65 36.7947 1620.45 31.52 1622.05 26.736C1623.64 21.8293 1626.59 17.6587 1630.88 14.224C1635.17 10.6667 1641.12 7.90667 1648.73 5.94401C1656.33 3.98134 1666.02 3 1677.8 3C1689.57 3 1699.27 3.98134 1706.87 5.94401C1714.48 7.90667 1720.36 10.6667 1724.53 14.224C1728.83 17.6587 1731.77 21.8293 1733.37 26.736C1734.96 31.52 1735.76 36.7947 1735.76 42.56ZM1733.92 105.304V42.56C1733.92 36.9173 1733.12 31.8267 1731.53 27.288C1729.93 22.6267 1727.05 18.64 1722.88 15.328C1718.71 12.016 1712.94 9.44 1705.58 7.60001C1698.35 5.76001 1689.08 4.84001 1677.8 4.84001C1666.51 4.84001 1657.19 5.76001 1649.83 7.60001C1642.59 9.44 1636.89 12.016 1632.72 15.328C1628.55 18.64 1625.6 22.6267 1623.89 27.288C1622.29 31.8267 1621.49 36.9173 1621.49 42.56V105.304C1621.49 110.947 1622.29 116.099 1623.89 120.76C1625.6 125.299 1628.55 129.224 1632.72 132.536C1636.89 135.725 1642.59 138.24 1649.83 140.08C1657.19 141.92 1666.51 142.84 1677.8 142.84C1689.08 142.84 1698.35 141.92 1705.58 140.08C1712.94 138.24 1718.71 135.725 1722.88 132.536C1727.05 129.224 1729.93 125.299 1731.53 120.76C1733.12 116.099 1733.92 110.947 1733.92 105.304ZM1641.37 101.072V46.792C1641.37 43.112 1641.92 39.7387 1643.02 36.672C1644.13 33.6053 1646.03 31.0293 1648.73 28.944C1651.43 26.736 1655.11 25.0187 1659.77 23.792C1664.55 22.5653 1670.5 21.952 1677.61 21.952C1691.84 21.952 1701.47 24.2827 1706.5 28.944C1711.65 33.6053 1714.23 39.5547 1714.23 46.792V101.072C1714.23 108.432 1711.65 114.443 1706.5 119.104C1701.47 123.643 1691.84 125.912 1677.61 125.912C1670.5 125.912 1664.55 125.299 1659.77 124.072C1655.11 122.845 1651.43 121.189 1648.73 119.104C1646.03 116.896 1644.13 114.259 1643.02 111.192C1641.92 108.125 1641.37 104.752 1641.37 101.072ZM1677.61 23.792C1664.49 23.792 1655.47 25.8773 1650.57 30.048C1645.66 34.2187 1643.21 39.8 1643.21 46.792V101.072C1643.21 108.064 1645.66 113.645 1650.57 117.816C1655.47 121.987 1664.49 124.072 1677.61 124.072C1690.74 124.072 1699.82 121.987 1704.85 117.816C1709.88 113.645 1712.39 108.064 1712.39 101.072V46.792C1712.39 39.9227 1709.88 34.4027 1704.85 30.232C1699.82 25.9387 1690.74 23.792 1677.61 23.792ZM1663.08 98.68V49.184C1663.08 46.8533 1663.94 44.8907 1665.65 43.296C1667.49 41.5787 1671.54 40.72 1677.8 40.72C1684.05 40.72 1688.04 41.5787 1689.76 43.296C1691.6 44.8907 1692.52 46.8533 1692.52 49.184V98.68C1692.52 101.133 1691.6 103.219 1689.76 104.936C1688.04 106.531 1684.05 107.328 1677.8 107.328C1671.54 107.328 1667.49 106.531 1665.65 104.936C1663.94 103.219 1663.08 101.133 1663.08 98.68ZM1664.92 49.184V98.68C1664.92 100.888 1665.84 102.605 1667.68 103.832C1669.52 104.936 1672.89 105.488 1677.8 105.488C1682.71 105.488 1686.08 104.936 1687.92 103.832C1689.76 102.605 1690.68 100.888 1690.68 98.68V49.184C1690.68 47.0987 1689.76 45.504 1687.92 44.4C1686.08 43.1733 1682.71 42.56 1677.8 42.56C1672.89 42.56 1669.52 43.1733 1667.68 44.4C1665.84 45.504 1664.92 47.0987 1664.92 49.184Z" fill="#FFE940"/>
<path d="M1499.23 141.92C1496.29 141.92 1494.14 141.245 1492.79 139.896C1491.44 138.547 1490.77 136.4 1490.77 133.456V111.928C1490.77 108.984 1491.44 106.837 1492.79 105.488C1494.14 104.139 1496.29 103.464 1499.23 103.464H1546.71C1547.56 103.464 1548.3 103.28 1548.91 102.912C1549.53 102.544 1549.83 101.931 1549.83 101.072V93.896C1549.83 93.0373 1549.53 92.424 1548.91 92.056C1548.3 91.688 1547.56 91.504 1546.71 91.504H1501.07C1498.13 91.504 1495.98 90.8293 1494.63 89.48C1493.28 88.1307 1492.61 85.984 1492.61 83.04V14.224C1492.61 11.28 1493.28 9.13334 1494.63 7.784C1495.98 6.43467 1498.13 5.76001 1501.07 5.76001H1580.38C1583.32 5.76001 1585.47 6.43467 1586.82 7.784C1588.17 9.13334 1588.84 11.28 1588.84 14.224V36.12C1588.84 39.064 1588.17 41.2107 1586.82 42.56C1585.47 43.9093 1583.32 44.584 1580.38 44.584H1538.06V52.864H1561.43C1571.98 52.864 1580.26 55.5013 1586.27 60.776C1592.4 65.928 1595.47 73.656 1595.47 83.96V109.536C1595.47 119.349 1592.09 127.2 1585.35 133.088C1578.6 138.976 1569.4 141.92 1557.75 141.92H1499.23ZM1557.75 140.08C1568.79 140.08 1577.5 137.32 1583.87 131.8C1590.38 126.28 1593.63 118.859 1593.63 109.536V83.96C1593.63 74.2693 1590.74 66.9707 1584.98 62.064C1579.21 57.1573 1571.36 54.704 1561.43 54.704H1536.22V42.744H1580.38C1582.71 42.744 1584.36 42.2533 1585.35 41.272C1586.45 40.168 1587 38.4507 1587 36.12V14.224C1587 11.8933 1586.45 10.2373 1585.35 9.25601C1584.36 8.15201 1582.71 7.60001 1580.38 7.60001H1501.07C1498.74 7.60001 1497.03 8.15201 1495.92 9.25601C1494.94 10.2373 1494.45 11.8933 1494.45 14.224V83.04C1494.45 85.3707 1494.94 87.088 1495.92 88.192C1497.03 89.1733 1498.74 89.664 1501.07 89.664H1546.71C1548.18 89.664 1549.34 90.032 1550.2 90.768C1551.18 91.3813 1551.67 92.424 1551.67 93.896V101.072C1551.67 102.544 1551.18 103.648 1550.2 104.384C1549.34 104.997 1548.18 105.304 1546.71 105.304H1499.23C1496.9 105.304 1495.19 105.856 1494.08 106.96C1493.1 107.941 1492.61 109.597 1492.61 111.928V133.456C1492.61 135.787 1493.1 137.504 1494.08 138.608C1495.19 139.589 1496.9 140.08 1499.23 140.08H1557.75ZM1509.17 123.52V121.68H1552.59C1559.46 121.68 1564.37 120.392 1567.31 117.816C1570.26 115.24 1571.73 111.131 1571.73 105.488V89.296C1571.73 83.5307 1570.2 79.4213 1567.13 76.968C1564.19 74.392 1559.89 73.104 1554.25 73.104H1514.51V24.16H1570.44V26H1516.35V71.264H1554.25C1560.63 71.264 1565.41 72.736 1568.6 75.68C1571.91 78.5013 1573.57 83.04 1573.57 89.296V105.488C1573.57 111.744 1571.98 116.344 1568.79 119.288C1565.6 122.109 1560.2 123.52 1552.59 123.52H1509.17Z" stroke="#FFE940" stroke-width="6" mask="url(#path-1-outside-1_8_8)"/>
<path d="M1735.76 42.56V105.304C1735.76 111.069 1734.96 116.405 1733.37 121.312C1731.77 126.096 1728.83 130.205 1724.53 133.64C1720.36 137.075 1714.48 139.773 1706.87 141.736C1699.27 143.699 1689.57 144.68 1677.8 144.68C1666.02 144.68 1656.33 143.699 1648.73 141.736C1641.12 139.773 1635.17 137.075 1630.88 133.64C1626.59 130.205 1623.64 126.096 1622.05 121.312C1620.45 116.405 1619.65 111.069 1619.65 105.304V42.56C1619.65 36.7947 1620.45 31.52 1622.05 26.736C1623.64 21.8293 1626.59 17.6587 1630.88 14.224C1635.17 10.6667 1641.12 7.90667 1648.73 5.94401C1656.33 3.98134 1666.02 3 1677.8 3C1689.57 3 1699.27 3.98134 1706.87 5.94401C1714.48 7.90667 1720.36 10.6667 1724.53 14.224C1728.83 17.6587 1731.77 21.8293 1733.37 26.736C1734.96 31.52 1735.76 36.7947 1735.76 42.56ZM1733.92 105.304V42.56C1733.92 36.9173 1733.12 31.8267 1731.53 27.288C1729.93 22.6267 1727.05 18.64 1722.88 15.328C1718.71 12.016 1712.94 9.44 1705.58 7.60001C1698.35 5.76001 1689.08 4.84001 1677.8 4.84001C1666.51 4.84001 1657.19 5.76001 1649.83 7.60001C1642.59 9.44 1636.89 12.016 1632.72 15.328C1628.55 18.64 1625.6 22.6267 1623.89 27.288C1622.29 31.8267 1621.49 36.9173 1621.49 42.56V105.304C1621.49 110.947 1622.29 116.099 1623.89 120.76C1625.6 125.299 1628.55 129.224 1632.72 132.536C1636.89 135.725 1642.59 138.24 1649.83 140.08C1657.19 141.92 1666.51 142.84 1677.8 142.84C1689.08 142.84 1698.35 141.92 1705.58 140.08C1712.94 138.24 1718.71 135.725 1722.88 132.536C1727.05 129.224 1729.93 125.299 1731.53 120.76C1733.12 116.099 1733.92 110.947 1733.92 105.304ZM1641.37 101.072V46.792C1641.37 43.112 1641.92 39.7387 1643.02 36.672C1644.13 33.6053 1646.03 31.0293 1648.73 28.944C1651.43 26.736 1655.11 25.0187 1659.77 23.792C1664.55 22.5653 1670.5 21.952 1677.61 21.952C1691.84 21.952 1701.47 24.2827 1706.5 28.944C1711.65 33.6053 1714.23 39.5547 1714.23 46.792V101.072C1714.23 108.432 1711.65 114.443 1706.5 119.104C1701.47 123.643 1691.84 125.912 1677.61 125.912C1670.5 125.912 1664.55 125.299 1659.77 124.072C1655.11 122.845 1651.43 121.189 1648.73 119.104C1646.03 116.896 1644.13 114.259 1643.02 111.192C1641.92 108.125 1641.37 104.752 1641.37 101.072ZM1677.61 23.792C1664.49 23.792 1655.47 25.8773 1650.57 30.048C1645.66 34.2187 1643.21 39.8 1643.21 46.792V101.072C1643.21 108.064 1645.66 113.645 1650.57 117.816C1655.47 121.987 1664.49 124.072 1677.61 124.072C1690.74 124.072 1699.82 121.987 1704.85 117.816C1709.88 113.645 1712.39 108.064 1712.39 101.072V46.792C1712.39 39.9227 1709.88 34.4027 1704.85 30.232C1699.82 25.9387 1690.74 23.792 1677.61 23.792ZM1663.08 98.68V49.184C1663.08 46.8533 1663.94 44.8907 1665.65 43.296C1667.49 41.5787 1671.54 40.72 1677.8 40.72C1684.05 40.72 1688.04 41.5787 1689.76 43.296C1691.6 44.8907 1692.52 46.8533 1692.52 49.184V98.68C1692.52 101.133 1691.6 103.219 1689.76 104.936C1688.04 106.531 1684.05 107.328 1677.8 107.328C1671.54 107.328 1667.49 106.531 1665.65 104.936C1663.94 103.219 1663.08 101.133 1663.08 98.68ZM1664.92 49.184V98.68C1664.92 100.888 1665.84 102.605 1667.68 103.832C1669.52 104.936 1672.89 105.488 1677.8 105.488C1682.71 105.488 1686.08 104.936 1687.92 103.832C1689.76 102.605 1690.68 100.888 1690.68 98.68V49.184C1690.68 47.0987 1689.76 45.504 1687.92 44.4C1686.08 43.1733 1682.71 42.56 1677.8 42.56C1672.89 42.56 1669.52 43.1733 1667.68 44.4C1665.84 45.504 1664.92 47.0987 1664.92 49.184Z" stroke="#FFE940" stroke-width="6" mask="url(#path-1-outside-1_8_8)"/>
<path fill-rule="evenodd" clip-rule="evenodd" d="M61.712 24.3301C60.719 53.3091 55.932 73.9381 47.234 86.7261C38.097 100.16 17.99 115.942 5.25 119.681L0 121.222V130.651V140.08L3.25 140.065C14.781 140.013 31.273 132.327 42.707 121.675C51.769 113.234 57.821 104.914 62.892 93.9241C69.855 78.8321 71.912 65.9081 72.696 32.3301L73.286 7.08008H67.794H62.303L61.712 24.3301ZM76 73.5801V140.08H85H94V73.5801V7.08008H85H76V73.5801ZM97.309 32.3301C97.93 58.6611 98.791 67.2781 102.124 80.4761C108.034 103.886 125.841 125.376 147.363 135.073C153.81 137.977 162.076 140.08 167.049 140.08H170V130.619V121.157L165.75 120.04C160.764 118.729 150.187 113.133 144.5 108.797C137.395 103.38 126.929 92.7331 122.804 86.7261C114.089 74.0341 109.284 53.3791 108.288 24.3301L107.697 7.08008H102.206H96.714L97.309 32.3301Z" fill="url(#paint0_linear_8_8)"/>
<defs>
<linearGradient id="paint0_linear_8_8" x1="85" y1="7.08008" x2="85" y2="140.08" gradientUnits="userSpaceOnUse">
<stop stop-color="#FFF500"/>
<stop offset="0.336458" stop-color="#FF8200"/>
<stop offset="0.669792" stop-color="#FF00ED"/>
<stop offset="1" stop-color="#8F00FF"/>
</linearGradient>
</defs>
</svg>
