<svg width="170" height="133" viewBox="0 0 170 133" fill="none" xmlns="http://www.w3.org/2000/svg">
<path fill-rule="evenodd" clip-rule="evenodd" d="M61.712 17.25C60.719 46.229 55.932 66.858 47.234 79.646C38.097 93.08 17.99 108.862 5.25 112.601L0 114.142V123.571V133L3.25 132.985C14.781 132.933 31.273 125.247 42.707 114.595C51.769 106.154 57.821 97.834 62.892 86.844C69.855 71.752 71.912 58.828 72.696 25.25L73.286 0H67.794H62.303L61.712 17.25ZM76 66.5V133H85H94V66.5V0H85H76V66.5ZM97.309 25.25C97.93 51.581 98.791 60.198 102.124 73.396C108.034 96.806 125.841 118.296 147.363 127.993C153.81 130.897 162.076 133 167.049 133H170V123.539V114.077L165.75 112.96C160.764 111.649 150.187 106.053 144.5 101.717C137.395 96.3 126.929 85.653 122.804 79.646C114.089 66.954 109.284 46.299 108.288 17.25L107.697 0H102.206H96.714L97.309 25.25Z" fill="url(#paint0_linear_1_7)"/>
<defs>
<linearGradient id="paint0_linear_1_7" x1="85" y1="0" x2="85" y2="133" gradientUnits="userSpaceOnUse">
<stop stop-color="#FFF500"/>
<stop offset="0.336458" stop-color="#FF8200"/>
<stop offset="0.669792" stop-color="#FF00ED"/>
<stop offset="1" stop-color="#8F00FF"/>
</linearGradient>
</defs>
</svg>
