<svg xmlns="http://www.w3.org/2000/svg" xmlns:xlink="http://www.w3.org/1999/xlink" viewBox="0 0 258.78 258.65"><defs><style>.cls-1{fill:url(#linear-gradient);}.cls-2{fill:url(#linear-gradient-2);}.cls-3{fill:url(#linear-gradient-3);}.cls-4{fill:url(#linear-gradient-4);}.cls-5{fill:url(#linear-gradient-5);}.cls-6{fill:url(#linear-gradient-6);}.cls-7{fill:url(#linear-gradient-7);}.cls-8{fill:url(#linear-gradient-8);}.cls-9{fill:url(#linear-gradient-9);}.cls-10{fill:url(#linear-gradient-10);}.cls-11{fill:url(#linear-gradient-11);}.cls-12{fill:url(#linear-gradient-12);}.cls-13{fill:url(#linear-gradient-13);}.cls-14{fill:url(#linear-gradient-14);}.cls-15{fill:url(#linear-gradient-15);}.cls-16{fill:url(#linear-gradient-16);}.cls-17{fill:url(#linear-gradient-17);}.cls-18{fill:url(#linear-gradient-18);}.cls-19{fill:url(#linear-gradient-19);}.cls-20{fill:url(#linear-gradient-20);}.cls-21{fill:url(#linear-gradient-21);}.cls-22{fill:url(#linear-gradient-22);}.cls-23{fill:url(#linear-gradient-23);}.cls-24{fill:url(#linear-gradient-24);}.cls-25{fill:url(#linear-gradient-25);}</style><linearGradient id="linear-gradient" x1="129.26" y1="1.15" x2="129.26" y2="182.21" gradientUnits="userSpaceOnUse"><stop offset="0" stop-color="#fff03c"/><stop offset="0.14" stop-color="#ffa95b"/><stop offset="0.27" stop-color="#ff6d75"/><stop offset="0.39" stop-color="#ff3e8a"/><stop offset="0.5" stop-color="#ff1c99"/><stop offset="0.58" stop-color="#ff07a2"/><stop offset="0.64" stop-color="#ff00a5"/><stop offset="0.7" stop-color="#f600a6"/><stop offset="0.79" stop-color="#de00ab"/><stop offset="0.91" stop-color="#b600b1"/><stop offset="1" stop-color="#9300b7"/></linearGradient><linearGradient id="linear-gradient-2" x1="129.26" y1="1.15" x2="129.26" y2="182.21" xlink:href="#linear-gradient"/><linearGradient id="linear-gradient-3" x1="129.26" y1="1.16" x2="129.26" y2="182.21" xlink:href="#linear-gradient"/><linearGradient id="linear-gradient-4" x1="129.26" y1="1.15" x2="129.26" y2="182.21" xlink:href="#linear-gradient"/><linearGradient id="linear-gradient-5" x1="129.26" y1="1.15" x2="129.26" y2="182.21" xlink:href="#linear-gradient"/><linearGradient id="linear-gradient-6" x1="129.26" y1="1.15" x2="129.26" y2="182.21" xlink:href="#linear-gradient"/><linearGradient id="linear-gradient-7" x1="129.26" y1="1.15" x2="129.26" y2="182.21" xlink:href="#linear-gradient"/><linearGradient id="linear-gradient-8" x1="129.26" y1="1.15" x2="129.26" y2="182.21" xlink:href="#linear-gradient"/><linearGradient id="linear-gradient-9" x1="129.26" y1="1.15" x2="129.26" y2="182.21" xlink:href="#linear-gradient"/><linearGradient id="linear-gradient-10" x1="129.26" y1="1.15" x2="129.26" y2="182.21" xlink:href="#linear-gradient"/><linearGradient id="linear-gradient-11" x1="129.26" y1="1.16" x2="129.26" y2="182.21" xlink:href="#linear-gradient"/><linearGradient id="linear-gradient-12" x1="129.26" y1="1.15" x2="129.26" y2="182.21" xlink:href="#linear-gradient"/><linearGradient id="linear-gradient-13" x1="129.51" y1="1.15" x2="129.51" y2="182.21" xlink:href="#linear-gradient"/><linearGradient id="linear-gradient-14" x1="129.51" y1="1.16" x2="129.51" y2="182.21" xlink:href="#linear-gradient"/><linearGradient id="linear-gradient-15" x1="129.51" y1="1.15" x2="129.51" y2="182.21" xlink:href="#linear-gradient"/><linearGradient id="linear-gradient-16" x1="129.51" y1="1.16" x2="129.51" y2="182.21" xlink:href="#linear-gradient"/><linearGradient id="linear-gradient-17" x1="129.51" y1="1.16" x2="129.51" y2="182.21" xlink:href="#linear-gradient"/><linearGradient id="linear-gradient-18" x1="129.51" y1="1.15" x2="129.51" y2="182.21" xlink:href="#linear-gradient"/><linearGradient id="linear-gradient-19" x1="129.51" y1="1.16" x2="129.51" y2="182.21" xlink:href="#linear-gradient"/><linearGradient id="linear-gradient-20" x1="129.51" y1="1.16" x2="129.51" y2="182.21" xlink:href="#linear-gradient"/><linearGradient id="linear-gradient-21" x1="129.51" y1="1.15" x2="129.51" y2="182.21" xlink:href="#linear-gradient"/><linearGradient id="linear-gradient-22" x1="129.51" y1="1.15" x2="129.51" y2="182.21" xlink:href="#linear-gradient"/><linearGradient id="linear-gradient-23" x1="129.51" y1="1.15" x2="129.51" y2="182.21" xlink:href="#linear-gradient"/><linearGradient id="linear-gradient-24" x1="129.51" y1="1.16" x2="129.51" y2="182.21" xlink:href="#linear-gradient"/><linearGradient id="linear-gradient-25" x1="129.26" y1="1.15" x2="129.26" y2="182.21" xlink:href="#linear-gradient"/></defs><title>nFichier 5</title><g id="Calque_2" data-name="Calque 2"><g id="BACKGROUND_1" data-name="BACKGROUND 1"><path class="cls-1" d="M225,42.32H33.5q-3.3,3.61-6.31,7.48H231.34Q228.33,45.94,225,42.32Z"/><path class="cls-2" d="M200.86,21.59H57.66a128.15,128.15,0,0,0-11.18,8.33H212.05A126.81,126.81,0,0,0,200.86,21.59Z"/><path class="cls-3" d="M240.83,63.71H17.7C16.32,66,15,68.4,13.79,70.82h231C243.51,68.4,242.2,66,240.83,63.71Z"/><path class="cls-4" d="M182.16,11.27H76.36a129,129,0,0,0-15.16,8H197.32A129,129,0,0,0,182.16,11.27Z"/><path class="cls-5" d="M258.24,117.73H.29C.17,119,.08,120.28,0,121.56H258.53C258.45,120.28,258.35,119,258.24,117.73Z"/><path class="cls-6" d="M214.7,32.19H43.82q-4.26,3.75-8.2,7.86H222.91Q219,35.94,214.7,32.19Z"/><path class="cls-7" d="M233.91,53.21H24.62c-1.69,2.31-3.31,4.67-4.84,7.1h219C237.21,57.88,235.6,55.52,233.91,53.21Z"/><path class="cls-8" d="M256.74,106.51H1.79c-.26,1.46-.49,2.93-.71,4.41H257.44C257.23,109.44,257,108,256.74,106.51Z"/><path class="cls-9" d="M129.26,0A129.25,129.25,0,0,0,81.75,9h95A129.27,129.27,0,0,0,129.26,0Z"/><path class="cls-10" d="M250.93,85H7.6q-1,2.81-1.93,5.68H252.86C252.26,88.78,251.61,86.89,250.93,85Z"/><path class="cls-11" d="M254.49,96.38H4c-.39,1.47-.76,3-1.1,4.45H255.58C255.24,99.33,254.88,97.85,254.49,96.38Z"/><path class="cls-12" d="M246.41,74.22H12.12q-1.45,3.09-2.75,6.25H249.16C248.29,78.36,247.38,76.28,246.41,74.22Z"/><path class="cls-13" d="M33.75,216.33H225.28q3.28-3.62,6.31-7.48H27.44Q30.46,212.71,33.75,216.33Z"/><path class="cls-14" d="M57.91,237.06H201.12a130.21,130.21,0,0,0,11.18-8.33H46.73A130.21,130.21,0,0,0,57.91,237.06Z"/><path class="cls-15" d="M18,194.93H241.08c1.37-2.32,2.68-4.68,3.91-7.1H14C15.27,190.25,16.57,192.61,18,194.93Z"/><path class="cls-16" d="M76.61,247.38h105.8a127.6,127.6,0,0,0,15.16-8H61.45A127.6,127.6,0,0,0,76.61,247.38Z"/><path class="cls-17" d="M.25,137.09c.08,1.28.17,2.56.29,3.83h258c.11-1.27.21-2.55.29-3.83Z"/><path class="cls-18" d="M44.07,226.46H215q4.28-3.75,8.21-7.86H35.87Q39.8,222.71,44.07,226.46Z"/><path class="cls-19" d="M24.87,205.44H234.16q2.53-3.47,4.84-7.1H20C21.56,200.76,23.18,203.13,24.87,205.44Z"/><path class="cls-20" d="M2,152.14H257c.26-1.46.49-2.93.7-4.41H1.33C1.55,149.21,1.78,150.68,2,152.14Z"/><path class="cls-21" d="M129.51,258.65a129.07,129.07,0,0,0,47.52-9H82A129.06,129.06,0,0,0,129.51,258.65Z"/><path class="cls-22" d="M7.85,173.63H251.18c.69-1.87,1.33-3.77,1.93-5.68H5.92C6.52,169.86,7.16,171.76,7.85,173.63Z"/><path class="cls-23" d="M4.29,162.27H254.74c.39-1.47.75-3,1.09-4.45H3.19C3.53,159.31,3.9,160.8,4.29,162.27Z"/><path class="cls-24" d="M12.37,184.42H246.66c1-2,1.88-4.13,2.75-6.24H9.62Q10.91,181.34,12.37,184.42Z"/><rect class="cls-25" y="127.03" width="258.53" height="4.19"/></g></g></svg>