<svg xmlns="http://www.w3.org/2000/svg" xmlns:xlink="http://www.w3.org/1999/xlink" viewBox="0 0 1137.03 198.35"><defs><style>.cls-1,.cls-15,.cls-16,.cls-17,.cls-18,.cls-19,.cls-20,.cls-21,.cls-22,.cls-23,.cls-24,.cls-25,.cls-28,.cls-29,.cls-30,.cls-31,.cls-32,.cls-33,.cls-34,.cls-35,.cls-36,.cls-37,.cls-38,.cls-41,.cls-42,.cls-43,.cls-44,.cls-45,.cls-46,.cls-47,.cls-48,.cls-49,.cls-50,.cls-51,.cls-54,.cls-55,.cls-56,.cls-57,.cls-58,.cls-59,.cls-60,.cls-61,.cls-62,.cls-63,.cls-64,.cls-65,.cls-68,.cls-69,.cls-70,.cls-71,.cls-72,.cls-73,.cls-74,.cls-75,.cls-76,.cls-77,.cls-78,.cls-79{fill:none;}.cls-11,.cls-13,.cls-2,.cls-3,.cls-4,.cls-6,.cls-7,.cls-8,.cls-9{fill:#1e193a;}.cls-11,.cls-15,.cls-16,.cls-17,.cls-18,.cls-19,.cls-2,.cls-20,.cls-21,.cls-22,.cls-23,.cls-24,.cls-25,.cls-28,.cls-29,.cls-3,.cls-30,.cls-31,.cls-32,.cls-33,.cls-34,.cls-35,.cls-36,.cls-37,.cls-38,.cls-4,.cls-41,.cls-42,.cls-43,.cls-44,.cls-45,.cls-46,.cls-47,.cls-48,.cls-49,.cls-50,.cls-51,.cls-54,.cls-55,.cls-56,.cls-57,.cls-58,.cls-59,.cls-6,.cls-60,.cls-61,.cls-62,.cls-63,.cls-64,.cls-65,.cls-68,.cls-69,.cls-7,.cls-70,.cls-71,.cls-72,.cls-73,.cls-74,.cls-75,.cls-76,.cls-77,.cls-78,.cls-79,.cls-8,.cls-9{stroke-miterlimit:10;}.cls-2,.cls-7{stroke-width:2.52px;}.cls-2{stroke:url(#New_Gradient_Swatch_2);}.cls-3,.cls-8{stroke-width:1.82px;}.cls-3{stroke:url(#New_Gradient_Swatch_2-2);}.cls-4,.cls-9{stroke-width:1.18px;}.cls-4{stroke:url(#New_Gradient_Swatch_2-3);}.cls-5{clip-path:url(#clip-path);}.cls-11,.cls-6{stroke-width:1.25px;}.cls-6{stroke:url(#New_Gradient_Swatch_2-4);}.cls-7{stroke:url(#New_Gradient_Swatch_2-5);}.cls-8{stroke:url(#New_Gradient_Swatch_2-6);}.cls-9{stroke:url(#New_Gradient_Swatch_2-7);}.cls-10{clip-path:url(#clip-path-2);}.cls-11{stroke:url(#New_Gradient_Swatch_2-8);}.cls-12{fill:url(#linear-gradient);}.cls-14{clip-path:url(#clip-path-3);}.cls-15,.cls-16,.cls-17,.cls-18,.cls-19,.cls-20,.cls-21,.cls-22,.cls-23,.cls-24,.cls-25{stroke-width:0.97px;}.cls-15{stroke:url(#linear-gradient-2);}.cls-16{stroke:url(#linear-gradient-3);}.cls-17{stroke:url(#linear-gradient-4);}.cls-18{stroke:url(#linear-gradient-5);}.cls-19{stroke:url(#linear-gradient-6);}.cls-20{stroke:url(#linear-gradient-7);}.cls-21{stroke:url(#linear-gradient-8);}.cls-22{stroke:url(#linear-gradient-9);}.cls-23{stroke:url(#linear-gradient-10);}.cls-24{stroke:url(#linear-gradient-11);}.cls-25{stroke:url(#linear-gradient-12);}.cls-26{fill:url(#linear-gradient-13);}.cls-27{clip-path:url(#clip-path-4);}.cls-28,.cls-29,.cls-30,.cls-31,.cls-32,.cls-33,.cls-34,.cls-35,.cls-36,.cls-37,.cls-38{stroke-width:1.37px;}.cls-28{stroke:url(#linear-gradient-14);}.cls-29{stroke:url(#linear-gradient-15);}.cls-30{stroke:url(#linear-gradient-16);}.cls-31{stroke:url(#linear-gradient-17);}.cls-32{stroke:url(#linear-gradient-18);}.cls-33{stroke:url(#linear-gradient-19);}.cls-34{stroke:url(#linear-gradient-20);}.cls-35{stroke:url(#linear-gradient-21);}.cls-36{stroke:url(#linear-gradient-22);}.cls-37{stroke:url(#linear-gradient-23);}.cls-38{stroke:url(#linear-gradient-24);}.cls-39{fill:url(#linear-gradient-25);}.cls-40{clip-path:url(#clip-path-5);}.cls-41,.cls-42,.cls-43,.cls-44,.cls-45,.cls-46,.cls-47,.cls-48,.cls-49,.cls-50,.cls-51,.cls-54,.cls-55,.cls-56,.cls-57,.cls-58,.cls-59,.cls-60,.cls-61,.cls-62,.cls-63,.cls-64,.cls-65,.cls-68,.cls-69,.cls-70,.cls-71,.cls-72,.cls-73,.cls-74,.cls-75,.cls-76,.cls-77,.cls-78,.cls-79{stroke-width:0.68px;}.cls-41{stroke:url(#linear-gradient-26);}.cls-42{stroke:url(#linear-gradient-27);}.cls-43{stroke:url(#linear-gradient-28);}.cls-44{stroke:url(#linear-gradient-29);}.cls-45{stroke:url(#linear-gradient-30);}.cls-46{stroke:url(#linear-gradient-31);}.cls-47{stroke:url(#linear-gradient-32);}.cls-48{stroke:url(#linear-gradient-33);}.cls-49{stroke:url(#linear-gradient-34);}.cls-50{stroke:url(#linear-gradient-35);}.cls-51{stroke:url(#linear-gradient-36);}.cls-52{fill:url(#linear-gradient-37);}.cls-53{clip-path:url(#clip-path-6);}.cls-54{stroke:url(#linear-gradient-38);}.cls-55{stroke:url(#linear-gradient-39);}.cls-56{stroke:url(#linear-gradient-40);}.cls-57{stroke:url(#linear-gradient-41);}.cls-58{stroke:url(#linear-gradient-42);}.cls-59{stroke:url(#linear-gradient-43);}.cls-60{stroke:url(#linear-gradient-44);}.cls-61{stroke:url(#linear-gradient-45);}.cls-62{stroke:url(#linear-gradient-46);}.cls-63{stroke:url(#linear-gradient-47);}.cls-64{stroke:url(#linear-gradient-48);}.cls-65{stroke:url(#linear-gradient-49);}.cls-66{fill:url(#New_Gradient_Swatch_1);}.cls-67{clip-path:url(#clip-path-7);}.cls-68{stroke:url(#linear-gradient-50);}.cls-69{stroke:url(#linear-gradient-51);}.cls-70{stroke:url(#linear-gradient-52);}.cls-71{stroke:url(#linear-gradient-53);}.cls-72{stroke:url(#linear-gradient-54);}.cls-73{stroke:url(#linear-gradient-55);}.cls-74{stroke:url(#linear-gradient-56);}.cls-75{stroke:url(#linear-gradient-57);}.cls-76{stroke:url(#linear-gradient-58);}.cls-77{stroke:url(#linear-gradient-59);}.cls-78{stroke:url(#linear-gradient-60);}.cls-79{stroke:url(#linear-gradient-61);}.cls-80{fill:url(#linear-gradient-62);}</style><linearGradient id="New_Gradient_Swatch_2" x1="2821.9" y1="173.03" x2="3048.7" y2="173.03" gradientTransform="translate(3188.1 271.24) rotate(180)" gradientUnits="userSpaceOnUse"><stop offset="0" stop-color="#1e193a"/><stop offset="0.53" stop-color="#e82e7b"/><stop offset="1" stop-color="#f9b041"/></linearGradient><linearGradient id="New_Gradient_Swatch_2-2" x1="2969.39" y1="146.09" x2="3133.16" y2="146.09" xlink:href="#New_Gradient_Swatch_2"/><linearGradient id="New_Gradient_Swatch_2-3" x1="2787.14" y1="121.54" x2="2893.49" y2="121.54" xlink:href="#New_Gradient_Swatch_2"/><clipPath id="clip-path"><rect class="cls-1" x="56.52" y="32.2" width="110.64" height="188.46"/></clipPath><linearGradient id="New_Gradient_Swatch_2-4" x1="3075.07" y1="124.4" x2="3188.1" y2="124.4" xlink:href="#New_Gradient_Swatch_2"/><linearGradient id="New_Gradient_Swatch_2-5" x1="376.44" y1="173.03" x2="603.25" y2="173.03" gradientTransform="matrix(1, 0, 0, -1, 394.38, 271.24)" xlink:href="#New_Gradient_Swatch_2"/><linearGradient id="New_Gradient_Swatch_2-6" x1="523.93" y1="146.09" x2="687.71" y2="146.09" gradientTransform="matrix(1, 0, 0, -1, 394.38, 271.24)" xlink:href="#New_Gradient_Swatch_2"/><linearGradient id="New_Gradient_Swatch_2-7" x1="341.69" y1="121.54" x2="448.03" y2="121.54" gradientTransform="matrix(1, 0, 0, -1, 394.38, 271.24)" xlink:href="#New_Gradient_Swatch_2"/><clipPath id="clip-path-2"><rect class="cls-1" x="969.87" y="32.2" width="110.64" height="188.46" transform="translate(2050.39 252.87) rotate(180)"/></clipPath><linearGradient id="New_Gradient_Swatch_2-8" x1="629.62" y1="124.4" x2="742.65" y2="124.4" gradientTransform="matrix(1, 0, 0, -1, 394.38, 271.24)" xlink:href="#New_Gradient_Swatch_2"/><linearGradient id="linear-gradient" x1="108" y1="270.27" x2="289.16" y2="151.01" gradientUnits="userSpaceOnUse"><stop offset="0" stop-color="#1e193a"/><stop offset="0.16" stop-color="#221a3c"/><stop offset="0.3" stop-color="#2d1c41"/><stop offset="0.44" stop-color="#3f2149"/><stop offset="0.58" stop-color="#5a2755"/><stop offset="0.72" stop-color="#7b2f65"/><stop offset="0.85" stop-color="#a53878"/><stop offset="0.98" stop-color="#d5438e"/><stop offset="1" stop-color="#dd4592"/></linearGradient><clipPath id="clip-path-3"><polygon class="cls-1" points="225.03 94.46 231.72 106.16 238 110.48 231.51 116.54 269.2 137.58 232.57 127.78 208.72 148.24 243.95 162.07 217.66 164.38 263.3 193.22 393.55 193.22 225.03 94.46"/></clipPath><linearGradient id="linear-gradient-2" x1="128.86" y1="143.17" x2="315.65" y2="143.17" gradientTransform="matrix(-1, 0, 0, 1, 550.89, 0)" gradientUnits="userSpaceOnUse"><stop offset="0" stop-color="#dd4592"/><stop offset="0.02" stop-color="#d5438e"/><stop offset="0.15" stop-color="#a53878"/><stop offset="0.28" stop-color="#7b2f65"/><stop offset="0.42" stop-color="#5a2755"/><stop offset="0.56" stop-color="#3f2149"/><stop offset="0.7" stop-color="#2d1c41"/><stop offset="0.84" stop-color="#221a3c"/><stop offset="1" stop-color="#1e193a"/></linearGradient><linearGradient id="linear-gradient-3" x1="145.45" y1="143.17" x2="332.24" y2="143.17" xlink:href="#linear-gradient-2"/><linearGradient id="linear-gradient-4" x1="162.04" y1="143.17" x2="348.83" y2="143.17" xlink:href="#linear-gradient-2"/><linearGradient id="linear-gradient-5" x1="178.63" y1="143.17" x2="365.42" y2="143.17" xlink:href="#linear-gradient-2"/><linearGradient id="linear-gradient-6" x1="195.22" y1="143.17" x2="382.01" y2="143.17" xlink:href="#linear-gradient-2"/><linearGradient id="linear-gradient-7" x1="211.81" y1="143.17" x2="398.6" y2="143.17" xlink:href="#linear-gradient-2"/><linearGradient id="linear-gradient-8" x1="228.4" y1="143.17" x2="415.19" y2="143.17" xlink:href="#linear-gradient-2"/><linearGradient id="linear-gradient-9" x1="244.99" y1="143.17" x2="431.78" y2="143.17" xlink:href="#linear-gradient-2"/><linearGradient id="linear-gradient-10" x1="261.58" y1="143.17" x2="448.37" y2="143.17" xlink:href="#linear-gradient-2"/><linearGradient id="linear-gradient-11" x1="294.76" y1="143.17" x2="481.55" y2="143.17" xlink:href="#linear-gradient-2"/><linearGradient id="linear-gradient-12" x1="311.35" y1="143.17" x2="498.14" y2="143.17" xlink:href="#linear-gradient-2"/><linearGradient id="linear-gradient-13" x1="889.61" y1="212.72" x2="970.85" y2="141.95" xlink:href="#linear-gradient"/><clipPath id="clip-path-4"><polygon class="cls-1" points="912 94.46 918.69 106.16 924.97 110.48 918.49 116.54 956.17 137.58 919.54 127.78 895.69 148.24 930.92 162.07 904.63 164.38 950.27 193.22 1080.52 193.22 912 94.46"/></clipPath><linearGradient id="linear-gradient-14" x1="922.1" y1="143.17" x2="1109.1" y2="143.17" xlink:href="#linear-gradient"/><linearGradient id="linear-gradient-15" x1="905.51" y1="143.17" x2="1092.51" y2="143.17" xlink:href="#linear-gradient"/><linearGradient id="linear-gradient-16" x1="888.92" y1="143.17" x2="1075.92" y2="143.17" xlink:href="#linear-gradient"/><linearGradient id="linear-gradient-17" x1="872.33" y1="143.17" x2="1059.33" y2="143.17" xlink:href="#linear-gradient"/><linearGradient id="linear-gradient-18" x1="855.74" y1="143.17" x2="1042.74" y2="143.17" xlink:href="#linear-gradient"/><linearGradient id="linear-gradient-19" x1="839.15" y1="143.17" x2="1026.15" y2="143.17" xlink:href="#linear-gradient"/><linearGradient id="linear-gradient-20" x1="822.56" y1="143.17" x2="1009.56" y2="143.17" xlink:href="#linear-gradient"/><linearGradient id="linear-gradient-21" x1="805.97" y1="143.17" x2="992.97" y2="143.17" xlink:href="#linear-gradient"/><linearGradient id="linear-gradient-22" x1="789.38" y1="143.17" x2="976.38" y2="143.17" xlink:href="#linear-gradient"/><linearGradient id="linear-gradient-23" x1="756.2" y1="143.17" x2="943.2" y2="143.17" xlink:href="#linear-gradient"/><linearGradient id="linear-gradient-24" x1="739.61" y1="143.17" x2="926.61" y2="143.17" xlink:href="#linear-gradient"/><linearGradient id="linear-gradient-25" x1="295.91" y1="132.52" x2="430.84" y2="267.45" gradientTransform="matrix(-1, 0, 0, 1, 737.89, 0)" xlink:href="#linear-gradient-2"/><clipPath id="clip-path-5"><polygon class="cls-1" points="453.78 117.85 448.67 126.78 443.88 130.08 448.83 134.7 420.07 150.75 448.02 143.28 466.22 158.89 439.34 169.45 459.4 171.21 424.57 193.22 325.17 193.22 453.78 117.85"/></clipPath><linearGradient id="linear-gradient-26" x1="303.44" y1="155.02" x2="445.98" y2="155.02" gradientUnits="userSpaceOnUse"><stop offset="0" stop-color="#1e193a"/><stop offset="0.13" stop-color="#2e1d42"/><stop offset="0.37" stop-color="#592755"/><stop offset="0.71" stop-color="#9e3675"/><stop offset="1" stop-color="#dd4592"/></linearGradient><linearGradient id="linear-gradient-27" x1="316.1" y1="155.02" x2="458.64" y2="155.02" xlink:href="#linear-gradient-26"/><linearGradient id="linear-gradient-28" x1="328.76" y1="155.02" x2="471.3" y2="155.02" xlink:href="#linear-gradient-26"/><linearGradient id="linear-gradient-29" x1="341.43" y1="155.02" x2="483.96" y2="155.02" xlink:href="#linear-gradient-26"/><linearGradient id="linear-gradient-30" x1="354.09" y1="155.02" x2="496.62" y2="155.02" xlink:href="#linear-gradient-26"/><linearGradient id="linear-gradient-31" x1="366.75" y1="155.02" x2="509.28" y2="155.02" xlink:href="#linear-gradient-26"/><linearGradient id="linear-gradient-32" x1="379.41" y1="155.02" x2="521.94" y2="155.02" xlink:href="#linear-gradient-26"/><linearGradient id="linear-gradient-33" x1="392.07" y1="155.02" x2="534.6" y2="155.02" xlink:href="#linear-gradient-26"/><linearGradient id="linear-gradient-34" x1="404.73" y1="155.02" x2="547.26" y2="155.02" xlink:href="#linear-gradient-26"/><linearGradient id="linear-gradient-35" x1="430.05" y1="155.02" x2="572.59" y2="155.02" xlink:href="#linear-gradient-26"/><linearGradient id="linear-gradient-36" x1="442.71" y1="155.02" x2="585.25" y2="155.02" xlink:href="#linear-gradient-26"/><linearGradient id="linear-gradient-37" x1="514.56" y1="161.11" x2="733.77" y2="161.11" gradientTransform="matrix(1, 0, 0, 1, 0, 0)" xlink:href="#linear-gradient-2"/><clipPath id="clip-path-6"><polygon class="cls-1" points="636.47 172.96 613.56 163.96 629.07 150.66 652.89 157.03 628.38 143.34 632.6 139.41 628.52 136.59 624.17 128.99 569.36 161.1 514.56 193.22 624.17 193.22 649.06 193.22 619.37 174.46 636.47 172.96"/></clipPath><linearGradient id="linear-gradient-38" x1="515.12" y1="160.67" x2="636.65" y2="160.67" xlink:href="#linear-gradient"/><linearGradient id="linear-gradient-39" x1="525.91" y1="160.67" x2="647.44" y2="160.67" xlink:href="#linear-gradient"/><linearGradient id="linear-gradient-40" x1="536.7" y1="160.67" x2="658.23" y2="160.67" xlink:href="#linear-gradient"/><linearGradient id="linear-gradient-41" x1="547.49" y1="160.67" x2="669.02" y2="160.67" xlink:href="#linear-gradient"/><linearGradient id="linear-gradient-42" x1="558.28" y1="160.67" x2="679.81" y2="160.67" xlink:href="#linear-gradient"/><linearGradient id="linear-gradient-43" x1="569.07" y1="160.67" x2="690.6" y2="160.67" xlink:href="#linear-gradient"/><linearGradient id="linear-gradient-44" x1="579.86" y1="160.67" x2="701.39" y2="160.67" xlink:href="#linear-gradient"/><linearGradient id="linear-gradient-45" x1="590.65" y1="160.67" x2="712.18" y2="160.67" xlink:href="#linear-gradient"/><linearGradient id="linear-gradient-46" x1="601.44" y1="160.67" x2="722.97" y2="160.67" xlink:href="#linear-gradient"/><linearGradient id="linear-gradient-47" x1="612.23" y1="160.67" x2="733.76" y2="160.67" xlink:href="#linear-gradient"/><linearGradient id="linear-gradient-48" x1="623.02" y1="160.67" x2="744.55" y2="160.67" xlink:href="#linear-gradient"/><linearGradient id="linear-gradient-49" x1="633.82" y1="160.67" x2="755.34" y2="160.67" xlink:href="#linear-gradient"/><linearGradient id="New_Gradient_Swatch_1" x1="634.22" y1="141.49" x2="749.21" y2="256.48" gradientUnits="userSpaceOnUse"><stop offset="0" stop-color="#1e193a"/><stop offset="0.18" stop-color="#1e1d3d"/><stop offset="0.34" stop-color="#1d2847"/><stop offset="0.49" stop-color="#1c3a58"/><stop offset="0.65" stop-color="#1b5570"/><stop offset="0.79" stop-color="#1a768e"/><stop offset="0.94" stop-color="#189fb3"/><stop offset="1" stop-color="#17b2c4"/></linearGradient><clipPath id="clip-path-7"><polygon class="cls-1" points="763.56 177.76 781.04 170.89 769.21 160.74 751.02 165.6 769.73 155.16 766.51 152.15 769.63 150 772.95 144.2 814.78 168.71 856.6 193.22 772.95 193.22 753.96 193.22 776.61 178.91 763.56 177.76"/></clipPath><linearGradient id="linear-gradient-50" x1="-118.32" y1="168.38" x2="-25.49" y2="168.38" gradientTransform="matrix(-1, 0, 0, 1, 737.89, 0)" xlink:href="#linear-gradient-2"/><linearGradient id="linear-gradient-51" x1="-110.09" y1="168.38" x2="-17.26" y2="168.38" gradientTransform="matrix(-1, 0, 0, 1, 737.89, 0)" xlink:href="#linear-gradient-2"/><linearGradient id="linear-gradient-52" x1="-101.85" y1="168.38" x2="-9.02" y2="168.38" gradientTransform="matrix(-1, 0, 0, 1, 737.89, 0)" xlink:href="#linear-gradient-2"/><linearGradient id="linear-gradient-53" x1="-93.62" y1="168.38" x2="-0.79" y2="168.38" gradientTransform="matrix(-1, 0, 0, 1, 737.89, 0)" xlink:href="#linear-gradient-2"/><linearGradient id="linear-gradient-54" x1="-85.38" y1="168.38" x2="7.45" y2="168.38" gradientTransform="matrix(-1, 0, 0, 1, 737.89, 0)" xlink:href="#linear-gradient-2"/><linearGradient id="linear-gradient-55" x1="-77.15" y1="168.38" x2="15.68" y2="168.38" gradientTransform="matrix(-1, 0, 0, 1, 737.89, 0)" xlink:href="#linear-gradient-2"/><linearGradient id="linear-gradient-56" x1="-68.91" y1="168.38" x2="23.92" y2="168.38" gradientTransform="matrix(-1, 0, 0, 1, 737.89, 0)" xlink:href="#linear-gradient-2"/><linearGradient id="linear-gradient-57" x1="-60.67" y1="168.38" x2="32.15" y2="168.38" gradientTransform="matrix(-1, 0, 0, 1, 737.89, 0)" xlink:href="#linear-gradient-2"/><linearGradient id="linear-gradient-58" x1="-52.44" y1="168.38" x2="40.39" y2="168.38" gradientTransform="matrix(-1, 0, 0, 1, 737.89, 0)" xlink:href="#linear-gradient-2"/><linearGradient id="linear-gradient-59" x1="-44.2" y1="168.38" x2="48.62" y2="168.38" gradientTransform="matrix(-1, 0, 0, 1, 737.89, 0)" xlink:href="#linear-gradient-2"/><linearGradient id="linear-gradient-60" x1="-35.97" y1="168.38" x2="56.86" y2="168.38" gradientTransform="matrix(-1, 0, 0, 1, 737.89, 0)" xlink:href="#linear-gradient-2"/><linearGradient id="linear-gradient-61" x1="-27.73" y1="168.38" x2="65.1" y2="168.38" gradientTransform="matrix(-1, 0, 0, 1, 737.89, 0)" xlink:href="#linear-gradient-2"/><linearGradient id="linear-gradient-62" x1="-27.38" y1="153.74" x2="60.38" y2="241.5" gradientTransform="matrix(-1, 0, 0, 1, 737.89, 0)" xlink:href="#linear-gradient-2"/></defs><title>nFichier 2</title><g id="Calque_2" data-name="Calque 2"><g id="Calque_1-2" data-name="Calque 1"><polygon class="cls-2" points="252.81 195.16 141.58 195.16 197.19 98.84 252.81 2.52 308.42 98.84 364.03 195.16 252.81 195.16"/><polygon class="cls-3" points="136.83 195.16 56.52 195.16 96.67 125.61 136.83 56.05 176.99 125.61 217.14 195.16 136.83 195.16"/><polygon class="cls-4" points="347.79 195.16 295.64 195.16 321.72 150 347.79 104.83 373.87 150 399.94 195.16 347.79 195.16"/><g class="cls-5"><polygon class="cls-6" points="56.52 195.16 1.09 195.16 28.8 147.16 56.52 99.15 84.23 147.16 111.94 195.16 56.52 195.16"/></g><polygon class="cls-7" points="884.23 195.16 995.45 195.16 939.84 98.84 884.23 2.52 828.61 98.84 773 195.16 884.23 195.16"/><polygon class="cls-8" points="1000.2 195.16 1080.52 195.16 1040.36 125.61 1000.2 56.05 960.04 125.61 919.89 195.16 1000.2 195.16"/><polygon class="cls-9" points="789.24 195.16 841.39 195.16 815.32 150 789.24 104.83 763.16 150 737.09 195.16 789.24 195.16"/><g class="cls-10"><polygon class="cls-11" points="1080.52 195.16 1135.94 195.16 1108.23 147.16 1080.52 99.15 1052.8 147.16 1025.09 195.16 1080.52 195.16"/></g><polygon class="cls-12" points="225.03 193.22 393.55 193.22 309.29 143.84 225.03 94.46 140.77 143.84 56.52 193.22 225.03 193.22"/><polygon class="cls-13" points="225.03 94.46 231.72 106.16 238 110.48 231.51 116.54 269.2 137.58 232.57 127.78 208.72 148.24 243.95 162.07 217.66 164.38 263.3 193.22 393.55 193.22 225.03 94.46"/><g class="cls-14"><line class="cls-15" x1="235.48" y1="88.58" x2="421.79" y2="197.76"/><line class="cls-16" x1="218.89" y1="88.58" x2="405.2" y2="197.76"/><line class="cls-17" x1="202.3" y1="88.58" x2="388.61" y2="197.76"/><line class="cls-18" x1="185.71" y1="88.58" x2="372.02" y2="197.76"/><line class="cls-19" x1="169.12" y1="88.58" x2="355.43" y2="197.76"/><line class="cls-20" x1="152.53" y1="88.58" x2="338.84" y2="197.76"/><line class="cls-21" x1="135.94" y1="88.58" x2="322.25" y2="197.76"/><line class="cls-22" x1="119.35" y1="88.58" x2="305.66" y2="197.76"/><line class="cls-23" x1="102.76" y1="88.58" x2="289.07" y2="197.76"/><line class="cls-24" x1="69.58" y1="88.58" x2="255.89" y2="197.76"/><line class="cls-25" x1="52.99" y1="88.58" x2="239.3" y2="197.76"/></g><polygon class="cls-26" points="912 193.22 1080.52 193.22 996.26 143.84 912 94.46 827.74 143.84 743.49 193.22 912 193.22"/><polygon class="cls-13" points="912 94.46 918.69 106.16 924.97 110.48 918.49 116.54 956.17 137.58 919.54 127.78 895.69 148.24 930.92 162.07 904.63 164.38 950.27 193.22 1080.52 193.22 912 94.46"/><g class="cls-27"><line class="cls-28" x1="922.45" y1="88.58" x2="1108.76" y2="197.76"/><line class="cls-29" x1="905.86" y1="88.58" x2="1092.17" y2="197.76"/><line class="cls-30" x1="889.27" y1="88.58" x2="1075.58" y2="197.76"/><line class="cls-31" x1="872.68" y1="88.58" x2="1058.99" y2="197.76"/><line class="cls-32" x1="856.09" y1="88.58" x2="1042.4" y2="197.76"/><line class="cls-33" x1="839.5" y1="88.58" x2="1025.81" y2="197.76"/><line class="cls-34" x1="822.91" y1="88.58" x2="1009.22" y2="197.76"/><line class="cls-35" x1="806.32" y1="88.58" x2="992.63" y2="197.76"/><line class="cls-36" x1="789.73" y1="88.58" x2="976.04" y2="197.76"/><line class="cls-37" x1="756.55" y1="88.58" x2="942.86" y2="197.76"/><line class="cls-38" x1="739.96" y1="88.58" x2="926.27" y2="197.76"/></g><polygon class="cls-13" points="453.78 193.22 325.17 193.22 389.47 155.54 453.78 117.85 518.08 155.54 582.38 193.22 453.78 193.22"/><polygon class="cls-39" points="453.78 117.85 448.67 126.78 443.88 130.08 448.83 134.7 420.07 150.75 448.02 143.28 466.22 158.89 439.34 169.45 459.4 171.21 424.57 193.22 325.17 193.22 453.78 117.85"/><g class="cls-40"><line class="cls-41" x1="445.8" y1="113.36" x2="303.61" y2="196.69"/><line class="cls-42" x1="458.46" y1="113.36" x2="316.28" y2="196.69"/><line class="cls-43" x1="471.12" y1="113.36" x2="328.94" y2="196.69"/><line class="cls-44" x1="483.79" y1="113.36" x2="341.6" y2="196.69"/><line class="cls-45" x1="496.45" y1="113.36" x2="354.26" y2="196.69"/><line class="cls-46" x1="509.11" y1="113.36" x2="366.92" y2="196.69"/><line class="cls-47" x1="521.77" y1="113.36" x2="379.58" y2="196.69"/><line class="cls-48" x1="534.43" y1="113.36" x2="392.24" y2="196.69"/><line class="cls-49" x1="547.09" y1="113.36" x2="404.9" y2="196.69"/><line class="cls-50" x1="572.41" y1="113.36" x2="430.23" y2="196.69"/><line class="cls-51" x1="585.08" y1="113.36" x2="442.89" y2="196.69"/></g><polygon class="cls-52" points="624.17 193.22 733.77 193.22 678.97 161.1 624.17 128.99 569.36 161.1 514.56 193.22 624.17 193.22"/><g class="cls-53"><line class="cls-54" x1="636.47" y1="125.16" x2="515.29" y2="196.18"/><line class="cls-55" x1="647.26" y1="125.16" x2="526.08" y2="196.18"/><line class="cls-56" x1="658.05" y1="125.16" x2="536.87" y2="196.18"/><line class="cls-57" x1="668.84" y1="125.16" x2="547.66" y2="196.18"/><line class="cls-58" x1="679.64" y1="125.16" x2="558.45" y2="196.18"/><line class="cls-59" x1="690.43" y1="125.16" x2="569.24" y2="196.18"/><line class="cls-60" x1="701.22" y1="125.16" x2="580.04" y2="196.18"/><line class="cls-61" x1="712.01" y1="125.16" x2="590.83" y2="196.18"/><line class="cls-62" x1="722.8" y1="125.16" x2="601.62" y2="196.18"/><line class="cls-63" x1="733.59" y1="125.16" x2="612.41" y2="196.18"/><line class="cls-64" x1="744.38" y1="125.16" x2="623.2" y2="196.18"/><line class="cls-65" x1="755.17" y1="125.16" x2="633.99" y2="196.18"/></g><polygon class="cls-66" points="624.17 128.99 628.52 136.59 632.6 139.41 628.38 143.34 652.89 157.03 629.07 150.66 613.56 163.96 636.47 172.96 619.37 174.46 649.06 193.22 733.77 193.22 624.17 128.99"/><polygon class="cls-13" points="772.95 193.22 689.3 193.22 731.13 168.71 772.95 144.2 814.78 168.71 856.6 193.22 772.95 193.22"/><g class="cls-67"><line class="cls-68" x1="763.56" y1="141.28" x2="856.04" y2="195.48"/><line class="cls-69" x1="755.32" y1="141.28" x2="847.81" y2="195.48"/><line class="cls-70" x1="747.09" y1="141.28" x2="839.57" y2="195.48"/><line class="cls-71" x1="738.85" y1="141.28" x2="831.34" y2="195.48"/><line class="cls-72" x1="730.62" y1="141.28" x2="823.1" y2="195.48"/><line class="cls-73" x1="722.38" y1="141.28" x2="814.87" y2="195.48"/><line class="cls-74" x1="714.15" y1="141.28" x2="806.63" y2="195.48"/><line class="cls-75" x1="705.91" y1="141.28" x2="798.4" y2="195.48"/><line class="cls-76" x1="697.68" y1="141.28" x2="790.16" y2="195.48"/><line class="cls-77" x1="689.44" y1="141.28" x2="781.93" y2="195.48"/><line class="cls-78" x1="681.21" y1="141.28" x2="773.69" y2="195.48"/><line class="cls-79" x1="672.97" y1="141.28" x2="765.45" y2="195.48"/></g><polygon class="cls-80" points="772.95 144.2 769.63 150 766.51 152.15 769.73 155.16 751.02 165.6 769.21 160.74 781.04 170.89 763.56 177.76 776.61 178.91 753.96 193.22 689.3 193.22 772.95 144.2"/></g></g></svg>
